<svg xmlns="http://www.w3.org/2000/svg" xmlns:xlink="http://www.w3.org/1999/xlink" width="453.981" height="287.725" viewBox="0 0 453.981 287.725">
  <defs>
    <clipPath id="clip-path">
      <rect id="Rectangle_1702" data-name="Rectangle 1702" width="101.359" height="85.636" fill="none"/>
    </clipPath>
    <linearGradient id="linear-gradient" x1="0.5" y1="0.93" x2="0.5" y2="0.616" gradientUnits="objectBoundingBox">
      <stop offset="0" stop-color="#e5e5e5"/>
      <stop offset="1" stop-color="#ccc"/>
    </linearGradient>
    <linearGradient id="linear-gradient-2" x1="0.487" y1="0.095" x2="0.501" y2="1.073" gradientUnits="objectBoundingBox">
      <stop offset="0" stop-color="#fff"/>
      <stop offset="1" stop-color="#ccc" stop-opacity="0"/>
    </linearGradient>
  </defs>
  <g id="Group_2335" data-name="Group 2335" transform="translate(-10528.613 1149.674)">
    <g id="Group_1898" data-name="Group 1898" transform="translate(10798.639 -1149.674)">
      <path id="Path_3688" data-name="Path 3688" d="M11119.132-1149.06q-1.342.17-2.653.413a1.685,1.685,0,0,0,1.171.478A1.68,1.68,0,0,0,11119.132-1149.06Z" transform="translate(-11076.309 1149.47)" fill="#ccc"/>
      <path id="Path_3689" data-name="Path 3689" d="M11129.314-1148.374a1.694,1.694,0,0,0,1.633-1.27c-.541-.017-1.087-.029-1.633-.029s-1.087.012-1.632.029A1.688,1.688,0,0,0,11129.314-1148.374Z" transform="translate(-11080.039 1149.674)" fill="#ccc"/>
      <path id="Path_3690" data-name="Path 3690" d="M11141.281-1148.17a1.687,1.687,0,0,0,1.17-.478c-.877-.16-1.758-.3-2.652-.413A1.675,1.675,0,0,0,11141.281-1148.17Z" transform="translate(-11084.078 1149.47)" fill="#ccc"/>
      <path id="Path_3691" data-name="Path 3691" d="M11093.616-1140.1a1.691,1.691,0,0,0-1.691,1.688,1.692,1.692,0,0,0,1.691,1.689,1.689,1.689,0,0,0,1.688-1.689A1.688,1.688,0,0,0,11093.616-1140.1Z" transform="translate(-11068.136 1146.486)" fill="#ccc"/>
      <path id="Path_3692" data-name="Path 3692" d="M11105.5-1140.1a1.684,1.684,0,0,0-1.686,1.688,1.685,1.685,0,0,0,1.686,1.689,1.691,1.691,0,0,0,1.689-1.689A1.69,1.69,0,0,0,11105.5-1140.1Z" transform="translate(-11072.094 1146.486)" fill="#ccc"/>
      <path id="Path_3693" data-name="Path 3693" d="M11117.395-1140.1a1.691,1.691,0,0,0-1.691,1.688,1.692,1.692,0,0,0,1.691,1.689,1.689,1.689,0,0,0,1.688-1.689A1.688,1.688,0,0,0,11117.395-1140.1Z" transform="translate(-11076.05 1146.486)" fill="#ccc"/>
      <circle id="Ellipse_943" data-name="Ellipse 943" cx="1.689" cy="1.689" r="1.689" transform="translate(47.584 6.385)" fill="#ccc"/>
      <circle id="Ellipse_944" data-name="Ellipse 944" cx="1.689" cy="1.689" r="1.689" transform="translate(55.514 6.385)" fill="#ccc"/>
      <circle id="Ellipse_945" data-name="Ellipse 945" cx="1.689" cy="1.689" r="1.689" transform="translate(63.445 6.385)" fill="#ccc"/>
      <circle id="Ellipse_946" data-name="Ellipse 946" cx="1.689" cy="1.689" r="1.689" transform="translate(71.375 6.385)" fill="#ccc"/>
      <circle id="Ellipse_947" data-name="Ellipse 947" cx="1.689" cy="1.689" r="1.689" transform="translate(15.861 14.848)" fill="#ccc"/>
      <path id="Path_3694" data-name="Path 3694" d="M11093.616-1127.413a1.691,1.691,0,0,0-1.691,1.689,1.691,1.691,0,0,0,1.691,1.688,1.688,1.688,0,0,0,1.688-1.688A1.688,1.688,0,0,0,11093.616-1127.413Z" transform="translate(-11068.136 1142.261)" fill="#ccc"/>
      <path id="Path_3695" data-name="Path 3695" d="M11105.5-1127.413a1.684,1.684,0,0,0-1.686,1.689,1.684,1.684,0,0,0,1.686,1.688,1.689,1.689,0,0,0,1.689-1.688A1.69,1.69,0,0,0,11105.5-1127.413Z" transform="translate(-11072.094 1142.261)" fill="#ccc"/>
      <path id="Path_3696" data-name="Path 3696" d="M11117.395-1127.413a1.691,1.691,0,0,0-1.691,1.689,1.691,1.691,0,0,0,1.691,1.688,1.688,1.688,0,0,0,1.688-1.688A1.688,1.688,0,0,0,11117.395-1127.413Z" transform="translate(-11076.05 1142.261)" fill="#ccc"/>
      <circle id="Ellipse_948" data-name="Ellipse 948" cx="1.689" cy="1.689" r="1.689" transform="translate(47.584 14.848)" fill="#ccc"/>
      <circle id="Ellipse_949" data-name="Ellipse 949" cx="1.689" cy="1.689" r="1.689" transform="translate(55.514 14.848)" fill="#ccc"/>
      <circle id="Ellipse_950" data-name="Ellipse 950" cx="1.689" cy="1.689" r="1.689" transform="translate(63.445 14.848)" fill="#ccc"/>
      <circle id="Ellipse_951" data-name="Ellipse 951" cx="1.689" cy="1.689" r="1.689" transform="translate(71.375 14.848)" fill="#ccc"/>
      <circle id="Ellipse_952" data-name="Ellipse 952" cx="1.689" cy="1.689" r="1.689" transform="translate(79.306 14.848)" fill="#ccc"/>
      <path id="Path_3697" data-name="Path 3697" d="M11069.837-1114.726a1.693,1.693,0,0,0-1.692,1.688,1.694,1.694,0,0,0,1.692,1.689,1.691,1.691,0,0,0,1.688-1.689A1.69,1.69,0,0,0,11069.837-1114.726Z" transform="translate(-11060.213 1138.036)" fill="#ccc"/>
      <path id="Path_3698" data-name="Path 3698" d="M11081.725-1114.726a1.688,1.688,0,0,0-1.689,1.688,1.689,1.689,0,0,0,1.689,1.689,1.69,1.69,0,0,0,1.688-1.689A1.69,1.69,0,0,0,11081.725-1114.726Z" transform="translate(-11064.173 1138.036)" fill="#ccc"/>
      <path id="Path_3699" data-name="Path 3699" d="M11093.616-1114.726a1.692,1.692,0,0,0-1.691,1.688,1.692,1.692,0,0,0,1.691,1.689,1.689,1.689,0,0,0,1.688-1.689A1.688,1.688,0,0,0,11093.616-1114.726Z" transform="translate(-11068.136 1138.036)" fill="#ccc"/>
      <path id="Path_3700" data-name="Path 3700" d="M11105.5-1114.726a1.684,1.684,0,0,0-1.686,1.688,1.685,1.685,0,0,0,1.686,1.689,1.691,1.691,0,0,0,1.689-1.689A1.69,1.69,0,0,0,11105.5-1114.726Z" transform="translate(-11072.094 1138.036)" fill="#ccc"/>
      <path id="Path_3701" data-name="Path 3701" d="M11117.395-1114.726a1.692,1.692,0,0,0-1.691,1.688,1.692,1.692,0,0,0,1.691,1.689,1.689,1.689,0,0,0,1.688-1.689A1.688,1.688,0,0,0,11117.395-1114.726Z" transform="translate(-11076.05 1138.036)" fill="#ccc"/>
      <path id="Path_3702" data-name="Path 3702" d="M11129.283-1114.726a1.685,1.685,0,0,0-1.686,1.688,1.686,1.686,0,0,0,1.686,1.689,1.688,1.688,0,0,0,1.688-1.689A1.687,1.687,0,0,0,11129.283-1114.726Z" transform="translate(-11080.014 1138.036)" fill="#ccc"/>
      <path id="Path_3703" data-name="Path 3703" d="M11141.176-1114.726a1.688,1.688,0,0,0-1.687,1.688,1.688,1.688,0,0,0,1.688,1.689,1.69,1.69,0,0,0,1.689-1.689A1.689,1.689,0,0,0,11141.176-1114.726Z" transform="translate(-11083.976 1138.036)" fill="#ccc"/>
      <path id="Path_3704" data-name="Path 3704" d="M11153.064-1114.726a1.686,1.686,0,0,0-1.687,1.688,1.686,1.686,0,0,0,1.688,1.689,1.688,1.688,0,0,0,1.687-1.689A1.687,1.687,0,0,0,11153.064-1114.726Z" transform="translate(-11087.934 1138.036)" fill="#ccc"/>
      <path id="Path_3705" data-name="Path 3705" d="M11164.955-1114.726a1.691,1.691,0,0,0-1.689,1.688,1.692,1.692,0,0,0,1.689,1.689,1.692,1.692,0,0,0,1.689-1.689A1.691,1.691,0,0,0,11164.955-1114.726Z" transform="translate(-11091.888 1138.036)" fill="#ccc"/>
      <path id="Path_3706" data-name="Path 3706" d="M11176.844-1114.726a1.688,1.688,0,0,0-1.687,1.688,1.689,1.689,0,0,0,1.688,1.689,1.688,1.688,0,0,0,1.688-1.689A1.687,1.687,0,0,0,11176.844-1114.726Z" transform="translate(-11095.852 1138.036)" fill="#ccc"/>
      <path id="Path_3707" data-name="Path 3707" d="M11188.736-1114.726a1.689,1.689,0,0,0-1.689,1.688,1.689,1.689,0,0,0,1.689,1.689,1.694,1.694,0,0,0,1.691-1.689A1.693,1.693,0,0,0,11188.736-1114.726Z" transform="translate(-11099.808 1138.036)" fill="#ccc"/>
      <path id="Path_3708" data-name="Path 3708" d="M11060.258-1100.275a1.689,1.689,0,0,0-1-1.539q-.615,1.557-1.123,3.164a1.641,1.641,0,0,0,.434.063A1.687,1.687,0,0,0,11060.258-1100.275Z" transform="translate(-11056.882 1133.736)" fill="#ccc"/>
      <path id="Path_3709" data-name="Path 3709" d="M11069.837-1102.038a1.693,1.693,0,0,0-1.692,1.689,1.693,1.693,0,0,0,1.692,1.688,1.69,1.69,0,0,0,1.688-1.688A1.69,1.69,0,0,0,11069.837-1102.038Z" transform="translate(-11060.213 1133.811)" fill="#ccc"/>
      <path id="Path_3710" data-name="Path 3710" d="M11081.725-1102.038a1.688,1.688,0,0,0-1.689,1.689,1.688,1.688,0,0,0,1.689,1.688,1.69,1.69,0,0,0,1.688-1.688A1.69,1.69,0,0,0,11081.725-1102.038Z" transform="translate(-11064.173 1133.811)" fill="#ccc"/>
      <path id="Path_3711" data-name="Path 3711" d="M11093.616-1102.038a1.691,1.691,0,0,0-1.691,1.689,1.691,1.691,0,0,0,1.691,1.688,1.688,1.688,0,0,0,1.688-1.688A1.688,1.688,0,0,0,11093.616-1102.038Z" transform="translate(-11068.136 1133.811)" fill="#ccc"/>
      <path id="Path_3712" data-name="Path 3712" d="M11105.5-1102.038a1.684,1.684,0,0,0-1.686,1.689,1.684,1.684,0,0,0,1.686,1.688,1.69,1.69,0,0,0,1.689-1.688A1.69,1.69,0,0,0,11105.5-1102.038Z" transform="translate(-11072.094 1133.811)" fill="#ccc"/>
      <path id="Path_3713" data-name="Path 3713" d="M11117.395-1102.038a1.691,1.691,0,0,0-1.691,1.689,1.691,1.691,0,0,0,1.691,1.688,1.688,1.688,0,0,0,1.688-1.688A1.688,1.688,0,0,0,11117.395-1102.038Z" transform="translate(-11076.05 1133.811)" fill="#ccc"/>
      <path id="Path_3714" data-name="Path 3714" d="M11129.283-1102.038a1.685,1.685,0,0,0-1.686,1.689,1.685,1.685,0,0,0,1.686,1.688,1.687,1.687,0,0,0,1.688-1.688A1.687,1.687,0,0,0,11129.283-1102.038Z" transform="translate(-11080.014 1133.811)" fill="#ccc"/>
      <path id="Path_3715" data-name="Path 3715" d="M11141.176-1102.038a1.687,1.687,0,0,0-1.687,1.689,1.687,1.687,0,0,0,1.688,1.688,1.689,1.689,0,0,0,1.689-1.688A1.689,1.689,0,0,0,11141.176-1102.038Z" transform="translate(-11083.976 1133.811)" fill="#ccc"/>
      <path id="Path_3716" data-name="Path 3716" d="M11153.064-1102.038a1.686,1.686,0,0,0-1.687,1.689,1.686,1.686,0,0,0,1.688,1.688,1.687,1.687,0,0,0,1.687-1.688A1.687,1.687,0,0,0,11153.064-1102.038Z" transform="translate(-11087.934 1133.811)" fill="#ccc"/>
      <path id="Path_3717" data-name="Path 3717" d="M11164.955-1102.038a1.691,1.691,0,0,0-1.689,1.689,1.691,1.691,0,0,0,1.689,1.688,1.691,1.691,0,0,0,1.689-1.688A1.691,1.691,0,0,0,11164.955-1102.038Z" transform="translate(-11091.888 1133.811)" fill="#ccc"/>
      <path id="Path_3718" data-name="Path 3718" d="M11176.844-1102.038a1.688,1.688,0,0,0-1.687,1.689,1.688,1.688,0,0,0,1.688,1.688,1.687,1.687,0,0,0,1.688-1.688A1.687,1.687,0,0,0,11176.844-1102.038Z" transform="translate(-11095.852 1133.811)" fill="#ccc"/>
      <path id="Path_3719" data-name="Path 3719" d="M11188.736-1102.038a1.689,1.689,0,0,0-1.689,1.689,1.689,1.689,0,0,0,1.689,1.688,1.693,1.693,0,0,0,1.691-1.688A1.693,1.693,0,0,0,11188.736-1102.038Z" transform="translate(-11099.808 1133.811)" fill="#ccc"/>
      <path id="Path_3720" data-name="Path 3720" d="M11198.936-1100.275a1.687,1.687,0,0,0,1.686,1.688,1.666,1.666,0,0,0,.438-.063q-.514-1.605-1.122-3.164A1.681,1.681,0,0,0,11198.936-1100.275Z" transform="translate(-11103.77 1133.736)" fill="#ccc"/>
      <path id="Path_3721" data-name="Path 3721" d="M11057.939-1089.351a1.685,1.685,0,0,0-1.683,1.688,1.685,1.685,0,0,0,1.683,1.689,1.688,1.688,0,0,0,1.688-1.689A1.687,1.687,0,0,0,11057.939-1089.351Z" transform="translate(-11056.257 1129.586)" fill="#ccc"/>
      <path id="Path_3722" data-name="Path 3722" d="M11069.837-1089.351a1.693,1.693,0,0,0-1.692,1.688,1.694,1.694,0,0,0,1.692,1.689,1.691,1.691,0,0,0,1.688-1.689A1.69,1.69,0,0,0,11069.837-1089.351Z" transform="translate(-11060.213 1129.586)" fill="#ccc"/>
      <path id="Path_3723" data-name="Path 3723" d="M11081.725-1089.351a1.688,1.688,0,0,0-1.689,1.688,1.689,1.689,0,0,0,1.689,1.689,1.69,1.69,0,0,0,1.688-1.689A1.69,1.69,0,0,0,11081.725-1089.351Z" transform="translate(-11064.173 1129.586)" fill="#ccc"/>
      <path id="Path_3724" data-name="Path 3724" d="M11093.616-1089.351a1.692,1.692,0,0,0-1.691,1.688,1.692,1.692,0,0,0,1.691,1.689,1.689,1.689,0,0,0,1.688-1.689A1.688,1.688,0,0,0,11093.616-1089.351Z" transform="translate(-11068.136 1129.586)" fill="#ccc"/>
      <path id="Path_3725" data-name="Path 3725" d="M11105.5-1089.351a1.684,1.684,0,0,0-1.686,1.688,1.685,1.685,0,0,0,1.686,1.689,1.691,1.691,0,0,0,1.689-1.689A1.69,1.69,0,0,0,11105.5-1089.351Z" transform="translate(-11072.094 1129.586)" fill="#ccc"/>
      <path id="Path_3726" data-name="Path 3726" d="M11117.395-1089.351a1.692,1.692,0,0,0-1.691,1.688,1.692,1.692,0,0,0,1.691,1.689,1.689,1.689,0,0,0,1.688-1.689A1.688,1.688,0,0,0,11117.395-1089.351Z" transform="translate(-11076.05 1129.586)" fill="#ccc"/>
      <path id="Path_3727" data-name="Path 3727" d="M11129.283-1089.351a1.685,1.685,0,0,0-1.686,1.688,1.686,1.686,0,0,0,1.686,1.689,1.688,1.688,0,0,0,1.688-1.689A1.687,1.687,0,0,0,11129.283-1089.351Z" transform="translate(-11080.014 1129.586)" fill="#ccc"/>
      <path id="Path_3728" data-name="Path 3728" d="M11141.176-1089.351a1.688,1.688,0,0,0-1.687,1.688,1.688,1.688,0,0,0,1.688,1.689,1.69,1.69,0,0,0,1.689-1.689A1.689,1.689,0,0,0,11141.176-1089.351Z" transform="translate(-11083.976 1129.586)" fill="#ccc"/>
      <path id="Path_3729" data-name="Path 3729" d="M11153.064-1089.351a1.686,1.686,0,0,0-1.687,1.688,1.686,1.686,0,0,0,1.688,1.689,1.688,1.688,0,0,0,1.687-1.689A1.688,1.688,0,0,0,11153.064-1089.351Z" transform="translate(-11087.934 1129.586)" fill="#ccc"/>
      <path id="Path_3730" data-name="Path 3730" d="M11164.955-1089.351a1.691,1.691,0,0,0-1.689,1.688,1.692,1.692,0,0,0,1.689,1.689,1.692,1.692,0,0,0,1.689-1.689A1.691,1.691,0,0,0,11164.955-1089.351Z" transform="translate(-11091.888 1129.586)" fill="#ccc"/>
      <path id="Path_3731" data-name="Path 3731" d="M11176.844-1089.351a1.688,1.688,0,0,0-1.687,1.688,1.689,1.689,0,0,0,1.688,1.689,1.688,1.688,0,0,0,1.688-1.689A1.687,1.687,0,0,0,11176.844-1089.351Z" transform="translate(-11095.852 1129.586)" fill="#ccc"/>
      <path id="Path_3732" data-name="Path 3732" d="M11188.736-1089.351a1.689,1.689,0,0,0-1.689,1.688,1.689,1.689,0,0,0,1.689,1.689,1.693,1.693,0,0,0,1.691-1.689A1.693,1.693,0,0,0,11188.736-1089.351Z" transform="translate(-11099.808 1129.586)" fill="#ccc"/>
      <path id="Path_3733" data-name="Path 3733" d="M11200.621-1089.351a1.687,1.687,0,0,0-1.686,1.688,1.688,1.688,0,0,0,1.686,1.689,1.687,1.687,0,0,0,1.689-1.689A1.687,1.687,0,0,0,11200.621-1089.351Z" transform="translate(-11103.77 1129.586)" fill="#ccc"/>
      <path id="Path_3734" data-name="Path 3734" d="M11057.939-1076.663a1.684,1.684,0,0,0-1.683,1.689,1.684,1.684,0,0,0,1.683,1.688,1.687,1.687,0,0,0,1.688-1.688A1.687,1.687,0,0,0,11057.939-1076.663Z" transform="translate(-11056.257 1125.361)" fill="#ccc"/>
      <path id="Path_3735" data-name="Path 3735" d="M11069.837-1076.663a1.693,1.693,0,0,0-1.692,1.689,1.693,1.693,0,0,0,1.692,1.688,1.69,1.69,0,0,0,1.688-1.688A1.69,1.69,0,0,0,11069.837-1076.663Z" transform="translate(-11060.213 1125.361)" fill="#ccc"/>
      <path id="Path_3736" data-name="Path 3736" d="M11081.725-1076.663a1.688,1.688,0,0,0-1.689,1.689,1.688,1.688,0,0,0,1.689,1.688,1.689,1.689,0,0,0,1.688-1.688A1.689,1.689,0,0,0,11081.725-1076.663Z" transform="translate(-11064.173 1125.361)" fill="#ccc"/>
      <path id="Path_3737" data-name="Path 3737" d="M11093.616-1076.663a1.691,1.691,0,0,0-1.691,1.689,1.691,1.691,0,0,0,1.691,1.688,1.688,1.688,0,0,0,1.688-1.688A1.688,1.688,0,0,0,11093.616-1076.663Z" transform="translate(-11068.136 1125.361)" fill="#ccc"/>
      <path id="Path_3738" data-name="Path 3738" d="M11105.5-1076.663a1.684,1.684,0,0,0-1.686,1.689,1.684,1.684,0,0,0,1.686,1.688,1.689,1.689,0,0,0,1.689-1.688A1.69,1.69,0,0,0,11105.5-1076.663Z" transform="translate(-11072.094 1125.361)" fill="#ccc"/>
      <path id="Path_3739" data-name="Path 3739" d="M11117.395-1076.663a1.691,1.691,0,0,0-1.691,1.689,1.691,1.691,0,0,0,1.691,1.688,1.688,1.688,0,0,0,1.688-1.688A1.688,1.688,0,0,0,11117.395-1076.663Z" transform="translate(-11076.05 1125.361)" fill="#ccc"/>
      <path id="Path_3740" data-name="Path 3740" d="M11129.283-1076.663a1.685,1.685,0,0,0-1.686,1.689,1.685,1.685,0,0,0,1.686,1.688,1.687,1.687,0,0,0,1.688-1.688A1.687,1.687,0,0,0,11129.283-1076.663Z" transform="translate(-11080.014 1125.361)" fill="#ccc"/>
      <path id="Path_3741" data-name="Path 3741" d="M11141.176-1076.663a1.687,1.687,0,0,0-1.687,1.689,1.687,1.687,0,0,0,1.688,1.688,1.689,1.689,0,0,0,1.689-1.688A1.689,1.689,0,0,0,11141.176-1076.663Z" transform="translate(-11083.976 1125.361)" fill="#ccc"/>
      <path id="Path_3742" data-name="Path 3742" d="M11153.064-1076.663a1.685,1.685,0,0,0-1.687,1.689,1.685,1.685,0,0,0,1.688,1.688,1.687,1.687,0,0,0,1.687-1.688A1.687,1.687,0,0,0,11153.064-1076.663Z" transform="translate(-11087.934 1125.361)" fill="#ccc"/>
      <path id="Path_3743" data-name="Path 3743" d="M11164.955-1076.663a1.691,1.691,0,0,0-1.689,1.689,1.691,1.691,0,0,0,1.689,1.688,1.691,1.691,0,0,0,1.689-1.688A1.691,1.691,0,0,0,11164.955-1076.663Z" transform="translate(-11091.888 1125.361)" fill="#ccc"/>
      <path id="Path_3744" data-name="Path 3744" d="M11176.844-1076.663a1.688,1.688,0,0,0-1.687,1.689,1.688,1.688,0,0,0,1.688,1.688,1.687,1.687,0,0,0,1.688-1.688A1.687,1.687,0,0,0,11176.844-1076.663Z" transform="translate(-11095.852 1125.361)" fill="#ccc"/>
      <path id="Path_3745" data-name="Path 3745" d="M11188.736-1076.663a1.688,1.688,0,0,0-1.689,1.689,1.688,1.688,0,0,0,1.689,1.688,1.692,1.692,0,0,0,1.691-1.688A1.692,1.692,0,0,0,11188.736-1076.663Z" transform="translate(-11099.808 1125.361)" fill="#ccc"/>
      <path id="Path_3746" data-name="Path 3746" d="M11200.621-1076.663a1.687,1.687,0,0,0-1.686,1.689,1.687,1.687,0,0,0,1.686,1.688,1.686,1.686,0,0,0,1.689-1.688A1.686,1.686,0,0,0,11200.621-1076.663Z" transform="translate(-11103.77 1125.361)" fill="#ccc"/>
      <path id="Path_3747" data-name="Path 3747" d="M11057.939-1063.976a1.685,1.685,0,0,0-1.683,1.689,1.685,1.685,0,0,0,1.683,1.689,1.688,1.688,0,0,0,1.688-1.689A1.687,1.687,0,0,0,11057.939-1063.976Z" transform="translate(-11056.257 1121.136)" fill="#ccc"/>
      <path id="Path_3748" data-name="Path 3748" d="M11069.837-1063.976a1.693,1.693,0,0,0-1.692,1.689,1.693,1.693,0,0,0,1.692,1.689,1.69,1.69,0,0,0,1.688-1.689A1.69,1.69,0,0,0,11069.837-1063.976Z" transform="translate(-11060.213 1121.136)" fill="#ccc"/>
      <path id="Path_3749" data-name="Path 3749" d="M11081.725-1063.976a1.688,1.688,0,0,0-1.689,1.689,1.688,1.688,0,0,0,1.689,1.689,1.69,1.69,0,0,0,1.688-1.689A1.69,1.69,0,0,0,11081.725-1063.976Z" transform="translate(-11064.173 1121.136)" fill="#ccc"/>
      <path id="Path_3750" data-name="Path 3750" d="M11093.616-1063.976a1.692,1.692,0,0,0-1.691,1.689,1.692,1.692,0,0,0,1.691,1.689,1.689,1.689,0,0,0,1.688-1.689A1.688,1.688,0,0,0,11093.616-1063.976Z" transform="translate(-11068.136 1121.136)" fill="#ccc"/>
      <path id="Path_3751" data-name="Path 3751" d="M11105.5-1063.976a1.684,1.684,0,0,0-1.686,1.689,1.684,1.684,0,0,0,1.686,1.689,1.69,1.69,0,0,0,1.689-1.689A1.69,1.69,0,0,0,11105.5-1063.976Z" transform="translate(-11072.094 1121.136)" fill="#ccc"/>
      <path id="Path_3752" data-name="Path 3752" d="M11117.395-1063.976a1.692,1.692,0,0,0-1.691,1.689,1.692,1.692,0,0,0,1.691,1.689,1.689,1.689,0,0,0,1.688-1.689A1.688,1.688,0,0,0,11117.395-1063.976Z" transform="translate(-11076.05 1121.136)" fill="#ccc"/>
      <path id="Path_3753" data-name="Path 3753" d="M11129.283-1063.976a1.686,1.686,0,0,0-1.686,1.689,1.686,1.686,0,0,0,1.686,1.689,1.687,1.687,0,0,0,1.688-1.689A1.687,1.687,0,0,0,11129.283-1063.976Z" transform="translate(-11080.014 1121.136)" fill="#ccc"/>
      <path id="Path_3754" data-name="Path 3754" d="M11141.176-1063.976a1.688,1.688,0,0,0-1.687,1.689,1.688,1.688,0,0,0,1.688,1.689,1.69,1.69,0,0,0,1.689-1.689A1.69,1.69,0,0,0,11141.176-1063.976Z" transform="translate(-11083.976 1121.136)" fill="#ccc"/>
      <path id="Path_3755" data-name="Path 3755" d="M11153.064-1063.976a1.686,1.686,0,0,0-1.687,1.689,1.686,1.686,0,0,0,1.688,1.689,1.688,1.688,0,0,0,1.687-1.689A1.688,1.688,0,0,0,11153.064-1063.976Z" transform="translate(-11087.934 1121.136)" fill="#ccc"/>
      <path id="Path_3756" data-name="Path 3756" d="M11164.955-1063.976a1.691,1.691,0,0,0-1.689,1.689,1.691,1.691,0,0,0,1.689,1.689,1.691,1.691,0,0,0,1.689-1.689A1.691,1.691,0,0,0,11164.955-1063.976Z" transform="translate(-11091.888 1121.136)" fill="#ccc"/>
      <path id="Path_3757" data-name="Path 3757" d="M11176.844-1063.976a1.688,1.688,0,0,0-1.687,1.689,1.689,1.689,0,0,0,1.688,1.689,1.687,1.687,0,0,0,1.688-1.689A1.687,1.687,0,0,0,11176.844-1063.976Z" transform="translate(-11095.852 1121.136)" fill="#ccc"/>
      <path id="Path_3758" data-name="Path 3758" d="M11188.736-1063.976a1.689,1.689,0,0,0-1.689,1.689,1.689,1.689,0,0,0,1.689,1.689,1.693,1.693,0,0,0,1.691-1.689A1.693,1.693,0,0,0,11188.736-1063.976Z" transform="translate(-11099.808 1121.136)" fill="#ccc"/>
      <path id="Path_3759" data-name="Path 3759" d="M11200.621-1063.976a1.687,1.687,0,0,0-1.686,1.689,1.688,1.688,0,0,0,1.686,1.689,1.687,1.687,0,0,0,1.689-1.689A1.687,1.687,0,0,0,11200.621-1063.976Z" transform="translate(-11103.77 1121.136)" fill="#ccc"/>
      <path id="Path_3760" data-name="Path 3760" d="M11060.258-1049.6a1.687,1.687,0,0,0-1.687-1.689,1.661,1.661,0,0,0-.434.063q.51,1.606,1.123,3.165A1.69,1.69,0,0,0,11060.258-1049.6Z" transform="translate(-11056.882 1116.911)" fill="#ccc"/>
      <circle id="Ellipse_953" data-name="Ellipse 953" cx="1.689" cy="1.689" r="1.689" transform="translate(7.931 65.622)" fill="#ccc"/>
      <circle id="Ellipse_954" data-name="Ellipse 954" cx="1.689" cy="1.689" r="1.689" transform="translate(15.861 65.622)" fill="#ccc"/>
      <path id="Path_3761" data-name="Path 3761" d="M11093.616-1051.288a1.691,1.691,0,0,0-1.691,1.689,1.691,1.691,0,0,0,1.691,1.689,1.688,1.688,0,0,0,1.688-1.689A1.688,1.688,0,0,0,11093.616-1051.288Z" transform="translate(-11068.136 1116.911)" fill="#ccc"/>
      <path id="Path_3762" data-name="Path 3762" d="M11105.5-1051.288a1.684,1.684,0,0,0-1.686,1.689,1.684,1.684,0,0,0,1.686,1.689,1.69,1.69,0,0,0,1.689-1.689A1.69,1.69,0,0,0,11105.5-1051.288Z" transform="translate(-11072.094 1116.911)" fill="#ccc"/>
      <path id="Path_3763" data-name="Path 3763" d="M11117.395-1051.288a1.691,1.691,0,0,0-1.691,1.689,1.691,1.691,0,0,0,1.691,1.689,1.688,1.688,0,0,0,1.688-1.689A1.688,1.688,0,0,0,11117.395-1051.288Z" transform="translate(-11076.05 1116.911)" fill="#ccc"/>
      <circle id="Ellipse_955" data-name="Ellipse 955" cx="1.689" cy="1.689" r="1.689" transform="translate(47.584 65.622)" fill="#ccc"/>
      <circle id="Ellipse_956" data-name="Ellipse 956" cx="1.689" cy="1.689" r="1.689" transform="translate(55.514 65.622)" fill="#ccc"/>
      <circle id="Ellipse_957" data-name="Ellipse 957" cx="1.689" cy="1.689" r="1.689" transform="translate(63.445 65.622)" fill="#ccc"/>
      <circle id="Ellipse_958" data-name="Ellipse 958" cx="1.689" cy="1.689" r="1.689" transform="translate(71.375 65.622)" fill="#ccc"/>
      <circle id="Ellipse_959" data-name="Ellipse 959" cx="1.689" cy="1.689" r="1.689" transform="translate(79.306 65.622)" fill="#ccc"/>
      <circle id="Ellipse_960" data-name="Ellipse 960" cx="1.689" cy="1.689" r="1.689" transform="translate(87.237 65.622)" fill="#ccc"/>
      <path id="Path_3764" data-name="Path 3764" d="M11198.936-1049.6a1.683,1.683,0,0,0,1,1.54q.611-1.557,1.122-3.165a1.686,1.686,0,0,0-.438-.063A1.687,1.687,0,0,0,11198.936-1049.6Z" transform="translate(-11103.77 1116.911)" fill="#ccc"/>
      <circle id="Ellipse_961" data-name="Ellipse 961" cx="1.689" cy="1.689" r="1.689" transform="translate(7.931 74.085)" fill="#ccc"/>
      <circle id="Ellipse_962" data-name="Ellipse 962" cx="1.689" cy="1.689" r="1.689" transform="translate(15.861 74.085)" fill="#ccc"/>
      <path id="Path_3765" data-name="Path 3765" d="M11093.616-1038.6a1.692,1.692,0,0,0-1.691,1.689,1.692,1.692,0,0,0,1.691,1.689,1.689,1.689,0,0,0,1.688-1.689A1.689,1.689,0,0,0,11093.616-1038.6Z" transform="translate(-11068.136 1112.686)" fill="#ccc"/>
      <path id="Path_3766" data-name="Path 3766" d="M11105.5-1038.6a1.684,1.684,0,0,0-1.686,1.689,1.685,1.685,0,0,0,1.686,1.689,1.69,1.69,0,0,0,1.689-1.689A1.69,1.69,0,0,0,11105.5-1038.6Z" transform="translate(-11072.094 1112.686)" fill="#ccc"/>
      <path id="Path_3767" data-name="Path 3767" d="M11117.395-1038.6a1.692,1.692,0,0,0-1.691,1.689,1.692,1.692,0,0,0,1.691,1.689,1.689,1.689,0,0,0,1.688-1.689A1.689,1.689,0,0,0,11117.395-1038.6Z" transform="translate(-11076.05 1112.686)" fill="#ccc"/>
      <circle id="Ellipse_963" data-name="Ellipse 963" cx="1.689" cy="1.689" r="1.689" transform="translate(47.584 74.085)" fill="#ccc"/>
      <circle id="Ellipse_964" data-name="Ellipse 964" cx="1.689" cy="1.689" r="1.689" transform="translate(55.514 74.085)" fill="#ccc"/>
      <circle id="Ellipse_965" data-name="Ellipse 965" cx="1.689" cy="1.689" r="1.689" transform="translate(63.445 74.085)" fill="#ccc"/>
      <circle id="Ellipse_966" data-name="Ellipse 966" cx="1.689" cy="1.689" r="1.689" transform="translate(71.375 74.085)" fill="#ccc"/>
      <circle id="Ellipse_967" data-name="Ellipse 967" cx="1.689" cy="1.689" r="1.689" transform="translate(79.306 74.085)" fill="#ccc"/>
      <circle id="Ellipse_968" data-name="Ellipse 968" cx="1.689" cy="1.689" r="1.689" transform="translate(87.237 74.085)" fill="#ccc"/>
      <circle id="Ellipse_969" data-name="Ellipse 969" cx="1.689" cy="1.689" r="1.689" transform="translate(15.861 82.547)" fill="#ccc"/>
      <path id="Path_3768" data-name="Path 3768" d="M11093.616-1025.913a1.691,1.691,0,0,0-1.691,1.688,1.692,1.692,0,0,0,1.691,1.689,1.688,1.688,0,0,0,1.688-1.689A1.688,1.688,0,0,0,11093.616-1025.913Z" transform="translate(-11068.136 1108.461)" fill="#ccc"/>
      <path id="Path_3769" data-name="Path 3769" d="M11105.5-1025.913a1.684,1.684,0,0,0-1.686,1.688,1.684,1.684,0,0,0,1.686,1.689,1.69,1.69,0,0,0,1.689-1.689A1.69,1.69,0,0,0,11105.5-1025.913Z" transform="translate(-11072.094 1108.461)" fill="#ccc"/>
      <path id="Path_3770" data-name="Path 3770" d="M11117.395-1025.913a1.691,1.691,0,0,0-1.691,1.688,1.692,1.692,0,0,0,1.691,1.689,1.688,1.688,0,0,0,1.688-1.689A1.688,1.688,0,0,0,11117.395-1025.913Z" transform="translate(-11076.05 1108.461)" fill="#ccc"/>
      <circle id="Ellipse_970" data-name="Ellipse 970" cx="1.689" cy="1.689" r="1.689" transform="translate(47.584 82.547)" fill="#ccc"/>
      <circle id="Ellipse_971" data-name="Ellipse 971" cx="1.689" cy="1.689" r="1.689" transform="translate(55.514 82.547)" fill="#ccc"/>
      <circle id="Ellipse_972" data-name="Ellipse 972" cx="1.689" cy="1.689" r="1.689" transform="translate(63.445 82.547)" fill="#ccc"/>
      <circle id="Ellipse_973" data-name="Ellipse 973" cx="1.689" cy="1.689" r="1.689" transform="translate(71.375 82.547)" fill="#ccc"/>
      <circle id="Ellipse_974" data-name="Ellipse 974" cx="1.689" cy="1.689" r="1.689" transform="translate(79.306 82.547)" fill="#ccc"/>
      <path id="Path_3771" data-name="Path 3771" d="M11093.616-1013.226a1.692,1.692,0,0,0-1.691,1.689,1.692,1.692,0,0,0,1.691,1.689,1.689,1.689,0,0,0,1.688-1.689A1.689,1.689,0,0,0,11093.616-1013.226Z" transform="translate(-11068.136 1104.236)" fill="#ccc"/>
      <path id="Path_3772" data-name="Path 3772" d="M11105.5-1013.226a1.685,1.685,0,0,0-1.686,1.689,1.684,1.684,0,0,0,1.686,1.689,1.69,1.69,0,0,0,1.689-1.689A1.691,1.691,0,0,0,11105.5-1013.226Z" transform="translate(-11072.094 1104.236)" fill="#ccc"/>
      <path id="Path_3773" data-name="Path 3773" d="M11117.395-1013.226a1.692,1.692,0,0,0-1.691,1.689,1.692,1.692,0,0,0,1.691,1.689,1.689,1.689,0,0,0,1.688-1.689A1.689,1.689,0,0,0,11117.395-1013.226Z" transform="translate(-11076.05 1104.236)" fill="#ccc"/>
      <circle id="Ellipse_975" data-name="Ellipse 975" cx="1.689" cy="1.689" r="1.689" transform="translate(47.584 91.01)" fill="#ccc"/>
      <circle id="Ellipse_976" data-name="Ellipse 976" cx="1.689" cy="1.689" r="1.689" transform="translate(55.514 91.01)" fill="#ccc"/>
      <circle id="Ellipse_977" data-name="Ellipse 977" cx="1.689" cy="1.689" r="1.689" transform="translate(63.445 91.01)" fill="#ccc"/>
      <circle id="Ellipse_978" data-name="Ellipse 978" cx="1.689" cy="1.689" r="1.689" transform="translate(71.375 91.01)" fill="#ccc"/>
      <path id="Path_3774" data-name="Path 3774" d="M11117.649-1000.538a1.684,1.684,0,0,0-1.171.478q1.314.24,2.653.413A1.679,1.679,0,0,0,11117.649-1000.538Z" transform="translate(-11076.309 1100.011)" fill="#ccc"/>
      <path id="Path_3775" data-name="Path 3775" d="M11129.314-1000.538a1.688,1.688,0,0,0-1.632,1.271c.545.017,1.084.029,1.632.029s1.092-.012,1.633-.029A1.694,1.694,0,0,0,11129.314-1000.538Z" transform="translate(-11080.039 1100.011)" fill="#ccc"/>
      <path id="Path_3776" data-name="Path 3776" d="M11139.8-999.647c.895-.114,1.775-.253,2.652-.413a1.685,1.685,0,0,0-1.17-.478A1.674,1.674,0,0,0,11139.8-999.647Z" transform="translate(-11084.078 1100.011)" fill="#ccc"/>
    </g>
    <g id="Group_1910" data-name="Group 1910" transform="translate(10798.868 -1129.607)">
      <path id="Path_3795" data-name="Path 3795" d="M11063.472-1071.428l7.731-21.952-26.635,5.827Z" transform="translate(-11044.568 1093.381)" fill="#fad0c1"/>
      <path id="Path_3796" data-name="Path 3796" d="M11067.887-1090.5l5.523,18.819,7.644-21.7Z" transform="translate(-11054.414 1093.381)" fill="#f7b198"/>
    </g>
    <g id="Group_1897" data-name="Group 1897" transform="translate(10706.131 -1108.786)">
      <g id="Group_1896" data-name="Group 1896" transform="translate(0)" clip-path="url(#clip-path)">
        <g id="Group_1895" data-name="Group 1895" transform="translate(0.703 51.102)">
          <circle id="Ellipse_938" data-name="Ellipse 938" cx="21.355" cy="21.355" r="21.355" transform="translate(57.043)" fill="#e5eff3"/>
          <circle id="Ellipse_939" data-name="Ellipse 939" cx="18.449" cy="18.449" r="18.449" transform="translate(35.071 1.418)" fill="#e5eff3"/>
          <circle id="Ellipse_940" data-name="Ellipse 940" cx="18.449" cy="18.449" r="18.449" transform="translate(18.401 12.527)" fill="#edf4f6"/>
          <circle id="Ellipse_941" data-name="Ellipse 941" cx="12.348" cy="12.348" r="12.348" transform="translate(14.915 2.067)" fill="#edf4f6"/>
          <circle id="Ellipse_942" data-name="Ellipse 942" cx="16.706" cy="16.706" r="16.706" transform="translate(0 12.435)" fill="#edf4f6"/>
        </g>
      </g>
    </g>
    <rect id="Rectangle_1703" data-name="Rectangle 1703" width="95.041" height="130.448" transform="translate(10703.598 -1114.126)" fill="#fff"/>
    <g id="Group_1901" data-name="Group 1901" transform="translate(10706.131 -1108.786)">
      <g id="Group_1900" data-name="Group 1900" transform="translate(0)" clip-path="url(#clip-path)">
        <g id="Group_1899" data-name="Group 1899" transform="translate(0.703 51.102)">
          <circle id="Ellipse_979" data-name="Ellipse 979" cx="21.355" cy="21.355" r="21.355" transform="translate(57.043)" fill="#e5e5e5"/>
          <circle id="Ellipse_980" data-name="Ellipse 980" cx="18.449" cy="18.449" r="18.449" transform="translate(35.071 1.418)" fill="#e5e5e5"/>
          <circle id="Ellipse_981" data-name="Ellipse 981" cx="18.449" cy="18.449" r="18.449" transform="translate(18.401 12.527)" fill="#e5e5e5"/>
          <circle id="Ellipse_982" data-name="Ellipse 982" cx="12.348" cy="12.348" r="12.348" transform="translate(14.915 2.067)" fill="#e5e5e5"/>
          <circle id="Ellipse_983" data-name="Ellipse 983" cx="16.706" cy="16.706" r="16.706" transform="translate(0 12.435)" fill="#e5e5e5"/>
        </g>
      </g>
    </g>
    <g id="Group_1902" data-name="Group 1902" transform="translate(10605.762 -1102.306)">
      <rect id="Rectangle_1705" data-name="Rectangle 1705" width="25.624" height="25.624" transform="translate(0 0)" fill="#fff" stroke="#ccc" stroke-miterlimit="10" stroke-width="5"/>
      <rect id="Rectangle_1706" data-name="Rectangle 1706" width="25.624" height="25.624" transform="translate(25.624 0)" fill="#fff" stroke="#ccc" stroke-miterlimit="10" stroke-width="5"/>
      <rect id="Rectangle_1707" data-name="Rectangle 1707" width="25.624" height="25.624" transform="translate(0 25.158)" fill="#fff" stroke="#ccc" stroke-miterlimit="10" stroke-width="5"/>
      <rect id="Rectangle_1708" data-name="Rectangle 1708" width="25.624" height="25.624" transform="translate(25.624 25.158)" fill="#fff" stroke="#ccc" stroke-miterlimit="10" stroke-width="5"/>
    </g>
    <path id="Path_3777" data-name="Path 3777" d="M10557.613-671.643V-793.371h453.981v121.729Z" transform="translate(-29 -190.306)" fill="url(#linear-gradient)"/>
    <path id="Path_3778" data-name="Path 3778" d="M10853.9-1081.066v134.113h4.924v-128.261h88.555v128.261h6.09v-134.113Z" transform="translate(-151.746 -36.645)" fill="#999"/>
    <path id="Path_3779" data-name="Path 3779" d="M10851.4-946.953h6.083v-128.261h50.564v-5.852H10851.4Z" transform="translate(-150.414 -36.645)" fill="#b2b2b2"/>
    <path id="Path_3780" data-name="Path 3780" d="M10820.9-793l-68.233,78.556h229.551L10911.531-793Z" transform="translate(-113.884 -190.505)" fill="url(#linear-gradient-2)"/>
    <g id="Group_1903" data-name="Group 1903" transform="translate(10743.867 -1119.567)">
      <path id="Path_3781" data-name="Path 3781" d="M10963.09-1056.36l13.74-19.641h-27.475Z" transform="translate(-10949.355 1076)" fill="#fad0c1"/>
      <path id="Path_3782" data-name="Path 3782" d="M10973.412-1076v19.414L10986.99-1076Z" transform="translate(-10959.517 1076)" fill="#f7b198"/>
    </g>
    <g id="Group_1904" data-name="Group 1904" transform="translate(10771.674 -1123.636)">
      <path id="Path_3783" data-name="Path 3783" d="M11014.662-1061.77l9.953-21.275-27.127,3.766Z" transform="translate(-10997.488 1083.045)" fill="#f6a284"/>
      <path id="Path_3784" data-name="Path 3784" d="M11021.238-1081.183l3.567,19.167,9.839-21.029Z" transform="translate(-11007.518 1083.045)" fill="#f3835b"/>
    </g>
    <g id="Group_1905" data-name="Group 1905" transform="translate(10825.63 -1135.961)">
      <path id="Path_3785" data-name="Path 3785" d="M11109.8-1082.428l7.729-21.953-26.632,5.827Z" transform="translate(-11090.895 1104.381)" fill="#f6a284"/>
      <path id="Path_3786" data-name="Path 3786" d="M11114.213-1101.5l5.525,18.819,7.64-21.7Z" transform="translate(-11100.74 1104.381)" fill="#f3835b"/>
    </g>
    <g id="Group_1906" data-name="Group 1906" transform="translate(10717.427 -1123.636)">
      <path id="Path_3787" data-name="Path 3787" d="M10913.536-1061.77l-9.952-21.275,27.127,3.766Z" transform="translate(-10903.584 1083.045)" fill="#f3835b"/>
      <path id="Path_3788" data-name="Path 3788" d="M10916.989-1081.183l-3.569,19.167-9.836-21.029Z" transform="translate(-10903.584 1083.045)" fill="#f6a284"/>
    </g>
    <g id="Group_1907" data-name="Group 1907" transform="translate(10690.726 -1129.607)">
      <path id="Path_3789" data-name="Path 3789" d="M10865.087-1071.428l-7.731-21.952,26.636,5.827Z" transform="translate(-10857.355 1093.381)" fill="#f7b198"/>
      <path id="Path_3790" data-name="Path 3790" d="M10870.519-1090.5l-5.522,18.819-7.641-21.7Z" transform="translate(-10857.355 1093.381)" fill="#fad0c1"/>
    </g>
    <g id="Group_1908" data-name="Group 1908" transform="translate(10663.964 -1135.961)">
      <path id="Path_3791" data-name="Path 3791" d="M10818.76-1082.428l-7.729-21.953,26.629,5.827Z" transform="translate(-10811.031 1104.381)" fill="#f3835b"/>
      <path id="Path_3792" data-name="Path 3792" d="M10824.191-1101.5l-5.518,18.819-7.643-21.7Z" transform="translate(-10811.031 1104.381)" fill="#f6a284"/>
    </g>
    <g id="Group_1909" data-name="Group 1909" transform="translate(10795.635 -1129.173)">
      <path id="Path_3793" data-name="Path 3793" d="M11079.914-933.9l-25.359-26.182,0-128.271,25.354-17.314Z" transform="translate(-11054.551 1105.67)" fill="#b2b2b2"/>
      <path id="Path_3794" data-name="Path 3794" d="M11111.271-933.916l-2.382.234V-1105.67l2.382.469Z" transform="translate(-11083.573 1105.67)" fill="#999"/>
    </g>
    <path id="Path_3797" data-name="Path 3797" d="M11043.682-1048.855a.886.886,0,0,1-.036-1.256.891.891,0,0,0-.035-1.256.89.89,0,0,0-1.258.035.886.886,0,0,1-1.254.036.888.888,0,0,0-1.256.035.886.886,0,0,0,.035,1.256.89.89,0,0,1,.034,1.256.885.885,0,0,0,.035,1.256.889.889,0,0,0,1.257-.035.887.887,0,0,1,1.255-.035.89.89,0,0,0,1.258-.035A.89.89,0,0,0,11043.682-1048.855Z" transform="translate(-250.931 -52.377)" fill="#f9c1ad"/>
    <g id="Group_1913" data-name="Group 1913" transform="translate(10783.907 -1040.361)">
      <path id="Path_3798" data-name="Path 3798" d="M11040.333-881.251l5.511,5.483,1.895-.082.525-.947a1.455,1.455,0,0,0-.248-1.729l-5.99-5.953-1.422.553-.522.947a1.45,1.45,0,0,0,.252,1.729Z" transform="translate(-11035 898.717)" fill="#f5a283"/>
      <g id="Group_1912" data-name="Group 1912" transform="translate(0 0)">
        <g id="Group_1911" data-name="Group 1911">
          <path id="Path_3799" data-name="Path 3799" d="M11033.217-863.619l-1.639-1.627-1.5.479-.521.947a1.447,1.447,0,0,0,.246,1.728l2.434,2.419,1.221-2.216A1.447,1.447,0,0,0,11033.217-863.619Z" transform="translate(-11029.379 888.444)" fill="#f5a283"/>
          <path id="Path_3800" data-name="Path 3800" d="M11070.556-911.1l1.256,1.249,1.877-.1.523-.947a1.453,1.453,0,0,0-.249-1.729l-2.432-2.418-1.224,2.216a1.453,1.453,0,0,0,.248,1.729Z" transform="translate(-11051.145 915.04)" fill="#f5a283"/>
          <path id="Path_3801" data-name="Path 3801" d="M11050.85-899.97l5.449,5.416,1.961-.015.523-.947a1.449,1.449,0,0,0-.244-1.728l-5.678-5.643-1.736.243-.521.947A1.453,1.453,0,0,0,11050.85-899.97Z" transform="translate(-11040.621 908.549)" fill="#f5a283"/>
        </g>
        <path id="Path_3802" data-name="Path 3802" d="M11061.152-903.649l-9.222-2.118,1.226-2.216a1.444,1.444,0,0,1,1.592-.713l9.221,2.118-1.223,2.216a1.448,1.448,0,0,1-1.594.713Z" transform="translate(-11041.425 911.672)" fill="#fad0c1"/>
        <path id="Path_3803" data-name="Path 3803" d="M11050.631-884.575l-9.222-2.118,1.223-2.216a1.449,1.449,0,0,1,1.593-.712l9.225,2.118-1.225,2.216A1.45,1.45,0,0,1,11050.631-884.575Z" transform="translate(-11035.805 901.483)" fill="#fad0c1"/>
        <path id="Path_3804" data-name="Path 3804" d="M11040.105-865.5l-9.218-2.118,1.223-2.216a1.447,1.447,0,0,1,1.594-.713l9.22,2.118-1.223,2.216a1.45,1.45,0,0,1-1.6.713Z" transform="translate(-11030.185 891.296)" fill="#fad0c1"/>
      </g>
    </g>
    <g id="Group_1914" data-name="Group 1914" transform="translate(10811.634 -1098.924)">
      <path id="Path_3805" data-name="Path 3805" d="M11142.819-949.1l-3.279,1.336-.427,2.62,1.085,1.382a2.357,2.357,0,0,0,2.743.727l5.157-2.1-2.538-3.235a2.354,2.354,0,0,0-2.741-.727Z" transform="translate(-11115.716 991.889)" fill="#f2835a"/>
      <path id="Path_3806" data-name="Path 3806" d="M11095.207-1034.5l3.172-1.291.533-2.665-1.084-1.381a2.353,2.353,0,0,0-2.74-.727l-5.16,2.1,2.537,3.235A2.354,2.354,0,0,0,11095.207-1034.5Z" transform="translate(-11089.446 1040.741)" fill="#f2835a"/>
      <path id="Path_3807" data-name="Path 3807" d="M11099.244-1002.962l11.5-4.687,1.281-2.968-1.086-1.382a2.357,2.357,0,0,0-2.744-.727l-11.334,4.62-1.443,3.035,1.084,1.382A2.356,2.356,0,0,0,11099.244-1002.962Z" transform="translate(-11092.377 1025.871)" fill="#f2835a"/>
      <path id="Path_3808" data-name="Path 3808" d="M11100.955-1029.769l-9.021,12.446-2.541-3.234a2.361,2.361,0,0,1-.052-2.837l9.02-12.446,2.539,3.235A2.357,2.357,0,0,1,11100.955-1029.769Z" transform="translate(-11088.894 1038.124)" fill="#f5a283"/>
      <path id="Path_3809" data-name="Path 3809" d="M11121.091-975.12l11.4-4.645,1.384-3.01-1.08-1.382a2.356,2.356,0,0,0-2.741-.727l-11.485,4.68-1.3,2.975,1.083,1.382a2.356,2.356,0,0,0,2.741.727Z" transform="translate(-11104.046 1011)" fill="#f2835a"/>
      <path id="Path_3810" data-name="Path 3810" d="M11122.8-1001.928l-9.02,12.446-2.538-3.235a2.351,2.351,0,0,1-.055-2.836l9.019-12.446,2.54,3.235A2.353,2.353,0,0,1,11122.8-1001.928Z" transform="translate(-11100.56 1023.253)" fill="#f5a283"/>
      <path id="Path_3811" data-name="Path 3811" d="M11144.648-974.086l-9.019,12.446-2.539-3.235a2.353,2.353,0,0,1-.055-2.836l9.021-12.446,2.54,3.235A2.355,2.355,0,0,1,11144.648-974.086Z" transform="translate(-11112.231 1008.383)" fill="#f5a283"/>
    </g>
    <path id="Path_3812" data-name="Path 3812" d="M11163.828-1082.967a2.1,2.1,0,0,1-2.1-2.1,2.1,2.1,0,0,0-2.1-2.1,2.1,2.1,0,0,0-2.1,2.1,2.1,2.1,0,0,1-2.1,2.1,2.1,2.1,0,0,0-2.1,2.1,2.1,2.1,0,0,0,2.1,2.1,2.1,2.1,0,0,1,2.1,2.1,2.1,2.1,0,0,0,2.1,2.1,2.1,2.1,0,0,0,2.1-2.1,2.1,2.1,0,0,1,2.1-2.1,2.1,2.1,0,0,0,2.1-2.1A2.1,2.1,0,0,0,11163.828-1082.967Z" transform="translate(-299.967 -30.784)" fill="#f3835b"/>
    <path id="Path_3813" data-name="Path 3813" d="M10921.483-912.445a2.439,2.439,0,0,1-3.4-.576.814.814,0,0,0-1.135-.192.815.815,0,0,0-.192,1.134,2.439,2.439,0,0,1-.575,3.4.813.813,0,0,0-.194,1.134.816.816,0,0,0,1.136.192,2.437,2.437,0,0,1,3.4.576.818.818,0,0,0,1.138.192.814.814,0,0,0,.19-1.134,2.44,2.44,0,0,1,.576-3.4.811.811,0,0,0,.189-1.134.81.81,0,0,0-1.131-.192Z" transform="translate(-184.827 -126.217)" fill="#f2835a"/>
    <path id="Path_3814" data-name="Path 3814" d="M11211.585-1029.285a2.658,2.658,0,0,1-3.706-.627.888.888,0,0,0-1.236-.209.884.884,0,0,0-.208,1.236,2.66,2.66,0,0,1-.627,3.707.885.885,0,0,0-.209,1.236.883.883,0,0,0,1.232.209,2.657,2.657,0,0,1,3.706.628.888.888,0,0,0,1.237.209.882.882,0,0,0,.208-1.235,2.66,2.66,0,0,1,.63-3.706.89.89,0,0,0,.21-1.236.888.888,0,0,0-1.237-.209Z" transform="translate(-339.507 -63.767)" fill="#f9c1ad"/>
    <path id="Path_3815" data-name="Path 3815" d="M11257.365-1132.363a2.655,2.655,0,0,1-3.7-.627.884.884,0,0,0-1.234-.209.888.888,0,0,0-.212,1.235,2.653,2.653,0,0,1-.627,3.707.887.887,0,0,0-.208,1.235.885.885,0,0,0,1.234.209,2.659,2.659,0,0,1,3.707.627.888.888,0,0,0,1.237.209.882.882,0,0,0,.206-1.236,2.662,2.662,0,0,1,.628-3.706.883.883,0,0,0,.21-1.236.888.888,0,0,0-1.237-.209Z" transform="translate(-363.959 -8.712)" fill="#f9c1ad"/>
    <path id="Path_3816" data-name="Path 3816" d="M11263.919-1063.027a6.52,6.52,0,0,1-6.52-6.518,2.171,2.171,0,0,0-2.172-2.172,2.173,2.173,0,0,0-2.172,2.172,6.518,6.518,0,0,1-6.518,6.518,2.175,2.175,0,0,0-2.175,2.173,2.175,2.175,0,0,0,2.175,2.172,6.517,6.517,0,0,1,6.518,6.518,2.174,2.174,0,0,0,2.172,2.173,2.171,2.171,0,0,0,2.172-2.173,6.521,6.521,0,0,1,6.52-6.518,2.172,2.172,0,0,0,2.172-2.172A2.173,2.173,0,0,0,11263.919-1063.027Z" transform="translate(-360.298 -41.637)" fill="#f9c1ad"/>
    <path id="Path_3817" data-name="Path 3817" d="M10990.236-1123.334a4.311,4.311,0,0,1-5.873-1.639,1.44,1.44,0,0,0-1.96-.546,1.44,1.44,0,0,0-.545,1.959,4.314,4.314,0,0,1-1.639,5.875,1.438,1.438,0,0,0-.548,1.959,1.438,1.438,0,0,0,1.958.546,4.31,4.31,0,0,1,5.874,1.638,1.44,1.44,0,0,0,1.96.546,1.435,1.435,0,0,0,.547-1.958,4.315,4.315,0,0,1,1.639-5.876,1.436,1.436,0,0,0,.548-1.958A1.441,1.441,0,0,0,10990.236-1123.334Z" transform="translate(-218.824 -12.802)" fill="#f9c1ad"/>
    <g id="Group_1930" data-name="Group 1930" transform="translate(10644.822 -1032.891)">
      <g id="Group_1915" data-name="Group 1915" transform="translate(0 0)">
        <path id="Path_3818" data-name="Path 3818" d="M10731.921-899a1.08,1.08,0,0,0-1.08,1.079,1.082,1.082,0,0,0,1.08,1.081,1.079,1.079,0,0,0,1.079-1.081A1.078,1.078,0,0,0,10731.921-899Z" transform="translate(-10730.841 899.003)" fill="#ccc"/>
        <path id="Path_3819" data-name="Path 3819" d="M10731.921-884.005a1.081,1.081,0,0,0-1.08,1.08,1.082,1.082,0,0,0,1.08,1.081,1.079,1.079,0,0,0,1.079-1.081A1.079,1.079,0,0,0,10731.921-884.005Z" transform="translate(-10730.841 890.993)" fill="#ccc"/>
        <path id="Path_3820" data-name="Path 3820" d="M10731.921-869.006a1.08,1.08,0,0,0-1.08,1.079,1.082,1.082,0,0,0,1.08,1.081,1.079,1.079,0,0,0,1.079-1.081A1.078,1.078,0,0,0,10731.921-869.006Z" transform="translate(-10730.841 882.981)" fill="#ccc"/>
        <path id="Path_3821" data-name="Path 3821" d="M10731.921-854.008a1.081,1.081,0,0,0-1.08,1.08,1.082,1.082,0,0,0,1.08,1.081,1.079,1.079,0,0,0,1.079-1.081A1.079,1.079,0,0,0,10731.921-854.008Z" transform="translate(-10730.841 874.971)" fill="#ccc"/>
        <path id="Path_3822" data-name="Path 3822" d="M10731.921-839.01a1.081,1.081,0,0,0-1.08,1.08,1.082,1.082,0,0,0,1.08,1.081,1.079,1.079,0,0,0,1.079-1.081A1.079,1.079,0,0,0,10731.921-839.01Z" transform="translate(-10730.841 866.96)" fill="#ccc"/>
        <path id="Path_3823" data-name="Path 3823" d="M10731.924-824.011a1.082,1.082,0,0,0-1.083,1.079,1.083,1.083,0,0,0,1.083,1.081,1.078,1.078,0,0,0,1.076-1.081A1.077,1.077,0,0,0,10731.924-824.011Z" transform="translate(-10730.841 858.949)" fill="#ccc"/>
      </g>
      <g id="Group_1916" data-name="Group 1916" transform="translate(10.75 0)">
        <path id="Path_3824" data-name="Path 3824" d="M10754.994-899a1.08,1.08,0,0,0-1.08,1.08,1.082,1.082,0,0,0,1.08,1.082,1.084,1.084,0,0,0,1.082-1.082A1.082,1.082,0,0,0,10754.994-899Z" transform="translate(-10753.914 899.004)" fill="#ccc"/>
        <path id="Path_3825" data-name="Path 3825" d="M10754.994-884.005a1.08,1.08,0,0,0-1.08,1.08,1.081,1.081,0,0,0,1.08,1.081,1.083,1.083,0,0,0,1.082-1.081A1.082,1.082,0,0,0,10754.994-884.005Z" transform="translate(-10753.914 890.993)" fill="#ccc"/>
        <path id="Path_3826" data-name="Path 3826" d="M10754.994-869.007a1.08,1.08,0,0,0-1.08,1.079,1.082,1.082,0,0,0,1.08,1.082,1.084,1.084,0,0,0,1.082-1.082A1.082,1.082,0,0,0,10754.994-869.007Z" transform="translate(-10753.914 882.982)" fill="#ccc"/>
        <path id="Path_3827" data-name="Path 3827" d="M10754.994-854.009a1.08,1.08,0,0,0-1.08,1.08,1.081,1.081,0,0,0,1.08,1.081,1.083,1.083,0,0,0,1.082-1.081A1.082,1.082,0,0,0,10754.994-854.009Z" transform="translate(-10753.914 874.971)" fill="#ccc"/>
        <path id="Path_3828" data-name="Path 3828" d="M10754.994-839.01a1.08,1.08,0,0,0-1.08,1.08,1.081,1.081,0,0,0,1.08,1.081,1.083,1.083,0,0,0,1.082-1.081A1.082,1.082,0,0,0,10754.994-839.01Z" transform="translate(-10753.914 866.96)" fill="#ccc"/>
        <path id="Path_3829" data-name="Path 3829" d="M10754.994-824.012a1.08,1.08,0,0,0-1.08,1.079,1.081,1.081,0,0,0,1.08,1.082,1.083,1.083,0,0,0,1.082-1.081A1.082,1.082,0,0,0,10754.994-824.012Z" transform="translate(-10753.914 858.95)" fill="#ccc"/>
      </g>
      <g id="Group_1917" data-name="Group 1917" transform="translate(5.375 0)">
        <path id="Path_3830" data-name="Path 3830" d="M10743.457-899a1.08,1.08,0,0,0-1.078,1.08,1.082,1.082,0,0,0,1.078,1.082,1.081,1.081,0,0,0,1.079-1.082A1.079,1.079,0,0,0,10743.457-899Z" transform="translate(-10742.379 899.004)" fill="#ccc"/>
        <path id="Path_3831" data-name="Path 3831" d="M10743.457-884.005a1.08,1.08,0,0,0-1.078,1.08,1.081,1.081,0,0,0,1.078,1.081,1.08,1.08,0,0,0,1.079-1.081A1.078,1.078,0,0,0,10743.457-884.005Z" transform="translate(-10742.379 890.993)" fill="#ccc"/>
        <path id="Path_3832" data-name="Path 3832" d="M10743.457-869.007a1.08,1.08,0,0,0-1.078,1.079,1.082,1.082,0,0,0,1.078,1.082,1.08,1.08,0,0,0,1.079-1.082A1.079,1.079,0,0,0,10743.457-869.007Z" transform="translate(-10742.379 882.982)" fill="#ccc"/>
        <path id="Path_3833" data-name="Path 3833" d="M10743.457-854.009a1.081,1.081,0,0,0-1.078,1.08,1.081,1.081,0,0,0,1.078,1.081,1.08,1.08,0,0,0,1.079-1.081A1.079,1.079,0,0,0,10743.457-854.009Z" transform="translate(-10742.379 874.971)" fill="#ccc"/>
        <path id="Path_3834" data-name="Path 3834" d="M10743.457-839.01a1.08,1.08,0,0,0-1.078,1.08,1.081,1.081,0,0,0,1.078,1.081,1.08,1.08,0,0,0,1.079-1.081A1.079,1.079,0,0,0,10743.457-839.01Z" transform="translate(-10742.379 866.96)" fill="#ccc"/>
        <path id="Path_3835" data-name="Path 3835" d="M10743.457-824.012a1.08,1.08,0,0,0-1.078,1.079,1.082,1.082,0,0,0,1.078,1.082,1.08,1.08,0,0,0,1.079-1.081A1.079,1.079,0,0,0,10743.457-824.012Z" transform="translate(-10742.379 858.95)" fill="#ccc"/>
      </g>
      <g id="Group_1918" data-name="Group 1918" transform="translate(21.501 0)">
        <path id="Path_3836" data-name="Path 3836" d="M10778.073-899a1.08,1.08,0,0,0-1.083,1.079,1.082,1.082,0,0,0,1.083,1.081,1.081,1.081,0,0,0,1.077-1.081A1.079,1.079,0,0,0,10778.073-899Z" transform="translate(-10776.99 899.003)" fill="#ccc"/>
        <path id="Path_3837" data-name="Path 3837" d="M10778.073-884a1.08,1.08,0,0,0-1.083,1.079,1.082,1.082,0,0,0,1.083,1.081,1.08,1.08,0,0,0,1.077-1.081A1.079,1.079,0,0,0,10778.073-884Z" transform="translate(-10776.99 890.992)" fill="#ccc"/>
        <path id="Path_3838" data-name="Path 3838" d="M10778.073-869.006a1.081,1.081,0,0,0-1.083,1.08,1.082,1.082,0,0,0,1.083,1.081,1.081,1.081,0,0,0,1.077-1.081A1.079,1.079,0,0,0,10778.073-869.006Z" transform="translate(-10776.99 882.981)" fill="#ccc"/>
        <path id="Path_3839" data-name="Path 3839" d="M10778.073-854.008a1.081,1.081,0,0,0-1.083,1.08,1.082,1.082,0,0,0,1.083,1.081,1.08,1.08,0,0,0,1.077-1.081A1.08,1.08,0,0,0,10778.073-854.008Z" transform="translate(-10776.99 874.971)" fill="#ccc"/>
        <path id="Path_3840" data-name="Path 3840" d="M10778.073-839.01a1.081,1.081,0,0,0-1.083,1.08,1.081,1.081,0,0,0,1.083,1.08,1.081,1.081,0,0,0,1.077-1.081A1.08,1.08,0,0,0,10778.073-839.01Z" transform="translate(-10776.99 866.96)" fill="#ccc"/>
        <path id="Path_3841" data-name="Path 3841" d="M10778.073-824.011a1.081,1.081,0,0,0-1.083,1.079,1.082,1.082,0,0,0,1.083,1.081,1.08,1.08,0,0,0,1.077-1.081A1.079,1.079,0,0,0,10778.073-824.011Z" transform="translate(-10776.99 858.949)" fill="#ccc"/>
      </g>
      <g id="Group_1919" data-name="Group 1919" transform="translate(16.125 0)">
        <path id="Path_3842" data-name="Path 3842" d="M10766.533-899a1.079,1.079,0,0,0-1.08,1.079,1.08,1.08,0,0,0,1.08,1.081,1.08,1.08,0,0,0,1.08-1.081A1.078,1.078,0,0,0,10766.533-899Z" transform="translate(-10765.453 899.003)" fill="#ccc"/>
        <path id="Path_3843" data-name="Path 3843" d="M10766.533-884a1.078,1.078,0,0,0-1.08,1.079,1.08,1.08,0,0,0,1.08,1.081,1.079,1.079,0,0,0,1.08-1.081A1.078,1.078,0,0,0,10766.533-884Z" transform="translate(-10765.453 890.992)" fill="#ccc"/>
        <path id="Path_3844" data-name="Path 3844" d="M10766.533-869.006a1.079,1.079,0,0,0-1.08,1.08,1.08,1.08,0,0,0,1.08,1.081,1.079,1.079,0,0,0,1.08-1.081A1.078,1.078,0,0,0,10766.533-869.006Z" transform="translate(-10765.453 882.981)" fill="#ccc"/>
        <path id="Path_3845" data-name="Path 3845" d="M10766.533-854.008a1.079,1.079,0,0,0-1.08,1.08,1.08,1.08,0,0,0,1.08,1.081,1.079,1.079,0,0,0,1.08-1.081A1.079,1.079,0,0,0,10766.533-854.008Z" transform="translate(-10765.453 874.971)" fill="#ccc"/>
        <path id="Path_3846" data-name="Path 3846" d="M10766.533-839.01a1.079,1.079,0,0,0-1.08,1.08,1.08,1.08,0,0,0,1.08,1.08,1.079,1.079,0,0,0,1.08-1.081A1.079,1.079,0,0,0,10766.533-839.01Z" transform="translate(-10765.453 866.96)" fill="#ccc"/>
        <path id="Path_3847" data-name="Path 3847" d="M10766.533-824.011a1.079,1.079,0,0,0-1.08,1.079,1.08,1.08,0,0,0,1.08,1.081,1.079,1.079,0,0,0,1.08-1.081A1.078,1.078,0,0,0,10766.533-824.011Z" transform="translate(-10765.453 858.949)" fill="#ccc"/>
      </g>
      <g id="Group_1920" data-name="Group 1920" transform="translate(32.251 0)">
        <path id="Path_3848" data-name="Path 3848" d="M10801.146-899a1.081,1.081,0,0,0-1.082,1.08,1.081,1.081,0,0,0,1.083,1.081,1.078,1.078,0,0,0,1.076-1.081A1.077,1.077,0,0,0,10801.146-899Z" transform="translate(-10800.064 899.004)" fill="#ccc"/>
        <path id="Path_3849" data-name="Path 3849" d="M10801.147-884.005a1.081,1.081,0,0,0-1.083,1.08,1.081,1.081,0,0,0,1.083,1.081,1.078,1.078,0,0,0,1.076-1.081A1.077,1.077,0,0,0,10801.147-884.005Z" transform="translate(-10800.064 890.993)" fill="#ccc"/>
        <path id="Path_3850" data-name="Path 3850" d="M10801.146-869.007a1.08,1.08,0,0,0-1.082,1.079,1.081,1.081,0,0,0,1.083,1.081,1.078,1.078,0,0,0,1.076-1.081A1.077,1.077,0,0,0,10801.146-869.007Z" transform="translate(-10800.064 882.982)" fill="#ccc"/>
        <path id="Path_3851" data-name="Path 3851" d="M10801.147-854.008a1.081,1.081,0,0,0-1.083,1.08,1.081,1.081,0,0,0,1.083,1.081,1.078,1.078,0,0,0,1.076-1.081A1.077,1.077,0,0,0,10801.147-854.008Z" transform="translate(-10800.064 874.971)" fill="#ccc"/>
        <path id="Path_3852" data-name="Path 3852" d="M10801.146-839.01a1.081,1.081,0,0,0-1.082,1.08,1.082,1.082,0,0,0,1.082,1.081,1.078,1.078,0,0,0,1.077-1.081A1.077,1.077,0,0,0,10801.146-839.01Z" transform="translate(-10800.064 866.96)" fill="#ccc"/>
        <path id="Path_3853" data-name="Path 3853" d="M10801.147-824.011a1.08,1.08,0,0,0-1.083,1.079,1.081,1.081,0,0,0,1.083,1.081,1.078,1.078,0,0,0,1.076-1.081A1.077,1.077,0,0,0,10801.147-824.011Z" transform="translate(-10800.064 858.949)" fill="#ccc"/>
      </g>
      <g id="Group_1921" data-name="Group 1921" transform="translate(26.876 0)">
        <path id="Path_3854" data-name="Path 3854" d="M10789.609-899a1.081,1.081,0,0,0-1.08,1.08,1.081,1.081,0,0,0,1.08,1.081,1.08,1.08,0,0,0,1.079-1.081A1.079,1.079,0,0,0,10789.609-899Z" transform="translate(-10788.529 899.004)" fill="#ccc"/>
        <path id="Path_3855" data-name="Path 3855" d="M10789.609-884.005a1.081,1.081,0,0,0-1.08,1.08,1.081,1.081,0,0,0,1.08,1.081,1.08,1.08,0,0,0,1.079-1.081A1.078,1.078,0,0,0,10789.609-884.005Z" transform="translate(-10788.529 890.993)" fill="#ccc"/>
        <path id="Path_3856" data-name="Path 3856" d="M10789.609-869.007a1.081,1.081,0,0,0-1.08,1.079,1.081,1.081,0,0,0,1.08,1.081,1.08,1.08,0,0,0,1.079-1.081A1.079,1.079,0,0,0,10789.609-869.007Z" transform="translate(-10788.529 882.982)" fill="#ccc"/>
        <path id="Path_3857" data-name="Path 3857" d="M10789.609-854.008a1.081,1.081,0,0,0-1.08,1.08,1.081,1.081,0,0,0,1.08,1.081,1.08,1.08,0,0,0,1.079-1.081A1.078,1.078,0,0,0,10789.609-854.008Z" transform="translate(-10788.529 874.971)" fill="#ccc"/>
        <path id="Path_3858" data-name="Path 3858" d="M10789.609-839.01a1.081,1.081,0,0,0-1.08,1.08,1.082,1.082,0,0,0,1.08,1.081,1.08,1.08,0,0,0,1.079-1.081A1.079,1.079,0,0,0,10789.609-839.01Z" transform="translate(-10788.529 866.96)" fill="#ccc"/>
        <path id="Path_3859" data-name="Path 3859" d="M10789.609-824.011a1.08,1.08,0,0,0-1.08,1.079,1.081,1.081,0,0,0,1.08,1.081,1.08,1.08,0,0,0,1.079-1.081A1.078,1.078,0,0,0,10789.609-824.011Z" transform="translate(-10788.529 858.949)" fill="#ccc"/>
      </g>
      <g id="Group_1922" data-name="Group 1922" transform="translate(43.001 0)">
        <path id="Path_3860" data-name="Path 3860" d="M10824.22-899a1.076,1.076,0,0,0-1.079,1.08,1.077,1.077,0,0,0,1.079,1.081,1.08,1.08,0,0,0,1.081-1.081A1.08,1.08,0,0,0,10824.22-899Z" transform="translate(-10823.141 899.004)" fill="#ccc"/>
        <path id="Path_3861" data-name="Path 3861" d="M10824.219-884.005a1.079,1.079,0,0,0-1.08,1.08,1.081,1.081,0,0,0,1.08,1.081,1.082,1.082,0,0,0,1.082-1.081A1.081,1.081,0,0,0,10824.219-884.005Z" transform="translate(-10823.139 890.993)" fill="#ccc"/>
        <path id="Path_3862" data-name="Path 3862" d="M10824.22-869.006a1.075,1.075,0,0,0-1.079,1.079,1.077,1.077,0,0,0,1.079,1.081,1.08,1.08,0,0,0,1.081-1.081A1.079,1.079,0,0,0,10824.22-869.006Z" transform="translate(-10823.141 882.982)" fill="#ccc"/>
        <path id="Path_3863" data-name="Path 3863" d="M10824.219-854.009a1.08,1.08,0,0,0-1.08,1.08,1.081,1.081,0,0,0,1.08,1.081,1.081,1.081,0,0,0,1.082-1.081A1.081,1.081,0,0,0,10824.219-854.009Z" transform="translate(-10823.139 874.971)" fill="#ccc"/>
        <path id="Path_3864" data-name="Path 3864" d="M10824.219-839.01a1.08,1.08,0,0,0-1.08,1.08,1.08,1.08,0,0,0,1.08,1.08,1.081,1.081,0,0,0,1.082-1.081A1.081,1.081,0,0,0,10824.219-839.01Z" transform="translate(-10823.139 866.96)" fill="#ccc"/>
        <path id="Path_3865" data-name="Path 3865" d="M10824.219-824.012a1.08,1.08,0,0,0-1.08,1.08,1.081,1.081,0,0,0,1.08,1.081,1.082,1.082,0,0,0,1.082-1.082A1.081,1.081,0,0,0,10824.219-824.012Z" transform="translate(-10823.139 858.95)" fill="#ccc"/>
      </g>
      <g id="Group_1923" data-name="Group 1923" transform="translate(37.626 0)">
        <path id="Path_3866" data-name="Path 3866" d="M10812.683-899a1.078,1.078,0,0,0-1.079,1.08,1.078,1.078,0,0,0,1.077,1.081,1.08,1.08,0,0,0,1.083-1.081A1.08,1.08,0,0,0,10812.683-899Z" transform="translate(-10811.604 899.004)" fill="#ccc"/>
        <path id="Path_3867" data-name="Path 3867" d="M10812.682-884.005a1.078,1.078,0,0,0-1.078,1.08,1.08,1.08,0,0,0,1.078,1.081,1.08,1.08,0,0,0,1.082-1.081A1.079,1.079,0,0,0,10812.682-884.005Z" transform="translate(-10811.604 890.993)" fill="#ccc"/>
        <path id="Path_3868" data-name="Path 3868" d="M10812.681-869.006a1.077,1.077,0,0,0-1.077,1.079,1.078,1.078,0,0,0,1.077,1.081,1.081,1.081,0,0,0,1.083-1.081A1.079,1.079,0,0,0,10812.681-869.006Z" transform="translate(-10811.604 882.982)" fill="#ccc"/>
        <path id="Path_3869" data-name="Path 3869" d="M10812.682-854.009a1.079,1.079,0,0,0-1.078,1.08,1.08,1.08,0,0,0,1.078,1.081,1.08,1.08,0,0,0,1.082-1.081A1.08,1.08,0,0,0,10812.682-854.009Z" transform="translate(-10811.604 874.971)" fill="#ccc"/>
        <path id="Path_3870" data-name="Path 3870" d="M10812.682-839.01a1.079,1.079,0,0,0-1.078,1.08,1.079,1.079,0,0,0,1.078,1.08,1.08,1.08,0,0,0,1.082-1.081A1.079,1.079,0,0,0,10812.682-839.01Z" transform="translate(-10811.604 866.96)" fill="#ccc"/>
        <path id="Path_3871" data-name="Path 3871" d="M10812.682-824.012a1.079,1.079,0,0,0-1.078,1.08,1.08,1.08,0,0,0,1.078,1.081,1.08,1.08,0,0,0,1.082-1.082A1.079,1.079,0,0,0,10812.682-824.012Z" transform="translate(-10811.604 858.95)" fill="#ccc"/>
      </g>
      <g id="Group_1924" data-name="Group 1924" transform="translate(53.751 0)">
        <path id="Path_3872" data-name="Path 3872" d="M10847.3-899a1.078,1.078,0,0,0-1.08,1.079,1.079,1.079,0,0,0,1.08,1.081,1.081,1.081,0,0,0,1.078-1.081A1.079,1.079,0,0,0,10847.3-899Z" transform="translate(-10846.217 899.003)" fill="#ccc"/>
        <path id="Path_3873" data-name="Path 3873" d="M10847.3-884.005a1.079,1.079,0,0,0-1.08,1.08,1.079,1.079,0,0,0,1.08,1.081,1.081,1.081,0,0,0,1.078-1.081A1.08,1.08,0,0,0,10847.3-884.005Z" transform="translate(-10846.217 890.993)" fill="#ccc"/>
        <path id="Path_3874" data-name="Path 3874" d="M10847.3-869.006a1.078,1.078,0,0,0-1.08,1.079,1.079,1.079,0,0,0,1.08,1.081,1.081,1.081,0,0,0,1.078-1.081A1.079,1.079,0,0,0,10847.3-869.006Z" transform="translate(-10846.217 882.981)" fill="#ccc"/>
        <path id="Path_3875" data-name="Path 3875" d="M10847.3-854.008a1.079,1.079,0,0,0-1.08,1.08,1.079,1.079,0,0,0,1.08,1.081,1.081,1.081,0,0,0,1.078-1.081A1.079,1.079,0,0,0,10847.3-854.008Z" transform="translate(-10846.217 874.971)" fill="#ccc"/>
        <path id="Path_3876" data-name="Path 3876" d="M10847.3-839.01a1.079,1.079,0,0,0-1.08,1.08,1.079,1.079,0,0,0,1.08,1.081,1.08,1.08,0,0,0,1.078-1.08A1.08,1.08,0,0,0,10847.3-839.01Z" transform="translate(-10846.217 866.96)" fill="#ccc"/>
        <path id="Path_3877" data-name="Path 3877" d="M10847.3-824.011a1.078,1.078,0,0,0-1.08,1.079,1.079,1.079,0,0,0,1.08,1.081,1.081,1.081,0,0,0,1.078-1.081A1.079,1.079,0,0,0,10847.3-824.011Z" transform="translate(-10846.217 858.949)" fill="#ccc"/>
      </g>
      <g id="Group_1925" data-name="Group 1925" transform="translate(48.376 0)">
        <path id="Path_3878" data-name="Path 3878" d="M10835.757-899a1.079,1.079,0,0,0-1.081,1.079,1.08,1.08,0,0,0,1.081,1.081,1.081,1.081,0,0,0,1.08-1.081A1.08,1.08,0,0,0,10835.757-899Z" transform="translate(-10834.676 899.003)" fill="#ccc"/>
        <path id="Path_3879" data-name="Path 3879" d="M10835.757-884.005a1.08,1.08,0,0,0-1.081,1.08,1.08,1.08,0,0,0,1.081,1.081,1.08,1.08,0,0,0,1.079-1.081A1.079,1.079,0,0,0,10835.757-884.005Z" transform="translate(-10834.676 890.993)" fill="#ccc"/>
        <path id="Path_3880" data-name="Path 3880" d="M10835.757-869.006a1.079,1.079,0,0,0-1.081,1.079,1.08,1.08,0,0,0,1.081,1.081,1.081,1.081,0,0,0,1.08-1.081A1.08,1.08,0,0,0,10835.757-869.006Z" transform="translate(-10834.676 882.981)" fill="#ccc"/>
        <path id="Path_3881" data-name="Path 3881" d="M10835.757-854.008a1.08,1.08,0,0,0-1.081,1.08,1.08,1.08,0,0,0,1.081,1.081,1.08,1.08,0,0,0,1.079-1.081A1.078,1.078,0,0,0,10835.757-854.008Z" transform="translate(-10834.676 874.971)" fill="#ccc"/>
        <path id="Path_3882" data-name="Path 3882" d="M10835.757-839.01a1.08,1.08,0,0,0-1.081,1.08,1.08,1.08,0,0,0,1.081,1.081,1.079,1.079,0,0,0,1.079-1.08A1.079,1.079,0,0,0,10835.757-839.01Z" transform="translate(-10834.676 866.96)" fill="#ccc"/>
        <path id="Path_3883" data-name="Path 3883" d="M10835.757-824.011a1.079,1.079,0,0,0-1.081,1.079,1.08,1.08,0,0,0,1.081,1.081,1.08,1.08,0,0,0,1.079-1.081A1.078,1.078,0,0,0,10835.757-824.011Z" transform="translate(-10834.676 858.949)" fill="#ccc"/>
      </g>
      <g id="Group_1926" data-name="Group 1926" transform="translate(64.501 0)">
        <path id="Path_3884" data-name="Path 3884" d="M10870.369-899a1.077,1.077,0,0,0-1.08,1.08,1.079,1.079,0,0,0,1.08,1.082,1.082,1.082,0,0,0,1.078-1.082A1.08,1.08,0,0,0,10870.369-899Z" transform="translate(-10869.289 899.004)" fill="#ccc"/>
        <path id="Path_3885" data-name="Path 3885" d="M10870.369-884.005a1.077,1.077,0,0,0-1.08,1.08,1.079,1.079,0,0,0,1.08,1.081,1.081,1.081,0,0,0,1.078-1.081A1.08,1.08,0,0,0,10870.369-884.005Z" transform="translate(-10869.289 890.993)" fill="#ccc"/>
        <path id="Path_3886" data-name="Path 3886" d="M10870.369-869.007a1.077,1.077,0,0,0-1.08,1.079,1.079,1.079,0,0,0,1.08,1.082,1.082,1.082,0,0,0,1.078-1.082A1.08,1.08,0,0,0,10870.369-869.007Z" transform="translate(-10869.289 882.982)" fill="#ccc"/>
        <path id="Path_3887" data-name="Path 3887" d="M10870.369-854.009a1.079,1.079,0,0,0-1.08,1.08,1.078,1.078,0,0,0,1.08,1.081,1.081,1.081,0,0,0,1.078-1.081A1.081,1.081,0,0,0,10870.369-854.009Z" transform="translate(-10869.289 874.971)" fill="#ccc"/>
        <path id="Path_3888" data-name="Path 3888" d="M10870.369-839.01a1.077,1.077,0,0,0-1.08,1.08,1.078,1.078,0,0,0,1.08,1.081,1.081,1.081,0,0,0,1.078-1.081A1.08,1.08,0,0,0,10870.369-839.01Z" transform="translate(-10869.289 866.96)" fill="#ccc"/>
        <path id="Path_3889" data-name="Path 3889" d="M10870.369-824.012a1.079,1.079,0,0,0-1.08,1.079,1.079,1.079,0,0,0,1.08,1.082,1.082,1.082,0,0,0,1.078-1.082A1.08,1.08,0,0,0,10870.369-824.012Z" transform="translate(-10869.289 858.95)" fill="#ccc"/>
      </g>
      <g id="Group_1927" data-name="Group 1927" transform="translate(59.126 0)">
        <path id="Path_3890" data-name="Path 3890" d="M10858.832-899a1.078,1.078,0,0,0-1.078,1.08,1.079,1.079,0,0,0,1.078,1.082,1.08,1.08,0,0,0,1.078-1.082A1.078,1.078,0,0,0,10858.832-899Z" transform="translate(-10857.754 899.004)" fill="#ccc"/>
        <path id="Path_3891" data-name="Path 3891" d="M10858.832-884.005a1.077,1.077,0,0,0-1.078,1.08,1.079,1.079,0,0,0,1.078,1.081,1.079,1.079,0,0,0,1.078-1.081A1.078,1.078,0,0,0,10858.832-884.005Z" transform="translate(-10857.754 890.993)" fill="#ccc"/>
        <path id="Path_3892" data-name="Path 3892" d="M10858.832-869.007a1.077,1.077,0,0,0-1.078,1.079,1.079,1.079,0,0,0,1.078,1.082,1.08,1.08,0,0,0,1.078-1.082A1.078,1.078,0,0,0,10858.832-869.007Z" transform="translate(-10857.754 882.982)" fill="#ccc"/>
        <path id="Path_3893" data-name="Path 3893" d="M10858.832-854.009a1.078,1.078,0,0,0-1.078,1.08,1.079,1.079,0,0,0,1.078,1.081,1.079,1.079,0,0,0,1.078-1.081A1.079,1.079,0,0,0,10858.832-854.009Z" transform="translate(-10857.754 874.971)" fill="#ccc"/>
        <path id="Path_3894" data-name="Path 3894" d="M10858.832-839.01a1.077,1.077,0,0,0-1.078,1.08,1.078,1.078,0,0,0,1.078,1.081,1.079,1.079,0,0,0,1.078-1.081A1.078,1.078,0,0,0,10858.832-839.01Z" transform="translate(-10857.754 866.96)" fill="#ccc"/>
        <path id="Path_3895" data-name="Path 3895" d="M10858.832-824.012a1.077,1.077,0,0,0-1.078,1.079,1.079,1.079,0,0,0,1.078,1.082,1.08,1.08,0,0,0,1.078-1.082A1.078,1.078,0,0,0,10858.832-824.012Z" transform="translate(-10857.754 858.95)" fill="#ccc"/>
      </g>
      <g id="Group_1928" data-name="Group 1928" transform="translate(75.251 0)">
        <path id="Path_3896" data-name="Path 3896" d="M10893.441-896.843a1.081,1.081,0,0,0,1.081-1.081,1.08,1.08,0,0,0-1.081-1.079,1.079,1.079,0,0,0-1.08,1.079A1.08,1.08,0,0,0,10893.441-896.843Z" transform="translate(-10892.361 899.003)" fill="#ccc"/>
        <path id="Path_3897" data-name="Path 3897" d="M10893.441-884.005a1.08,1.08,0,0,0-1.08,1.08,1.08,1.08,0,0,0,1.08,1.081,1.08,1.08,0,0,0,1.08-1.081A1.079,1.079,0,0,0,10893.441-884.005Z" transform="translate(-10892.361 890.993)" fill="#ccc"/>
        <path id="Path_3898" data-name="Path 3898" d="M10893.441-869.006a1.079,1.079,0,0,0-1.08,1.079,1.08,1.08,0,0,0,1.08,1.081,1.081,1.081,0,0,0,1.081-1.081A1.08,1.08,0,0,0,10893.441-869.006Z" transform="translate(-10892.361 882.981)" fill="#ccc"/>
        <path id="Path_3899" data-name="Path 3899" d="M10893.441-854.008a1.079,1.079,0,0,0-1.08,1.08,1.08,1.08,0,0,0,1.08,1.081,1.081,1.081,0,0,0,1.081-1.081A1.08,1.08,0,0,0,10893.441-854.008Z" transform="translate(-10892.361 874.971)" fill="#ccc"/>
        <path id="Path_3900" data-name="Path 3900" d="M10893.441-839.01a1.08,1.08,0,0,0-1.08,1.08,1.08,1.08,0,0,0,1.08,1.081,1.081,1.081,0,0,0,1.081-1.081A1.08,1.08,0,0,0,10893.441-839.01Z" transform="translate(-10892.361 866.96)" fill="#ccc"/>
        <path id="Path_3901" data-name="Path 3901" d="M10893.441-824.011a1.079,1.079,0,0,0-1.08,1.079,1.08,1.08,0,0,0,1.08,1.081,1.081,1.081,0,0,0,1.081-1.081A1.079,1.079,0,0,0,10893.441-824.011Z" transform="translate(-10892.361 858.949)" fill="#ccc"/>
      </g>
      <g id="Group_1929" data-name="Group 1929" transform="translate(69.875 0)">
        <path id="Path_3902" data-name="Path 3902" d="M10881.906-896.843a1.077,1.077,0,0,0,1.074-1.081,1.076,1.076,0,0,0-1.074-1.079,1.08,1.08,0,0,0-1.084,1.079A1.081,1.081,0,0,0,10881.906-896.843Z" transform="translate(-10880.822 899.003)" fill="#ccc"/>
        <path id="Path_3903" data-name="Path 3903" d="M10881.906-884.005a1.081,1.081,0,0,0-1.084,1.08,1.081,1.081,0,0,0,1.084,1.081,1.077,1.077,0,0,0,1.074-1.081A1.076,1.076,0,0,0,10881.906-884.005Z" transform="translate(-10880.822 890.993)" fill="#ccc"/>
        <path id="Path_3904" data-name="Path 3904" d="M10881.906-869.006a1.08,1.08,0,0,0-1.084,1.079,1.082,1.082,0,0,0,1.084,1.081,1.077,1.077,0,0,0,1.074-1.081A1.076,1.076,0,0,0,10881.906-869.006Z" transform="translate(-10880.822 882.981)" fill="#ccc"/>
        <path id="Path_3905" data-name="Path 3905" d="M10881.906-854.008a1.081,1.081,0,0,0-1.084,1.08,1.081,1.081,0,0,0,1.084,1.081,1.077,1.077,0,0,0,1.074-1.081A1.077,1.077,0,0,0,10881.906-854.008Z" transform="translate(-10880.822 874.971)" fill="#ccc"/>
        <path id="Path_3906" data-name="Path 3906" d="M10881.906-839.01a1.081,1.081,0,0,0-1.084,1.08,1.082,1.082,0,0,0,1.084,1.081,1.077,1.077,0,0,0,1.074-1.081A1.076,1.076,0,0,0,10881.906-839.01Z" transform="translate(-10880.822 866.96)" fill="#ccc"/>
        <path id="Path_3907" data-name="Path 3907" d="M10881.906-824.011a1.08,1.08,0,0,0-1.084,1.079,1.081,1.081,0,0,0,1.084,1.081,1.077,1.077,0,0,0,1.074-1.081A1.076,1.076,0,0,0,10881.906-824.011Z" transform="translate(-10880.822 858.949)" fill="#ccc"/>
      </g>
    </g>
    <g id="Group_1943" data-name="Group 1943" transform="translate(10716.451 -1110.35)">
      <path id="Path_3908" data-name="Path 3908" d="M10892.9-1008.732l1.591-3.714c.66-1.542,1.14-4,.794-5.041-.265-.8-.943-.841-1.325-.265-.529.8-1.57,1.655-1.858.8-.187-.563-.41-3.844-.676-5.436-.293-1.756-1.987-2.272-3.691-.284-.865,1.007-3.39,3.614-3.124,6.532.122,1.347.659,2.118,1.986,3.976a9.659,9.659,0,0,1,1.7,3.976Z" transform="translate(-10884.59 1040.74)" fill="#fad0c1"/>
      <g id="Group_1940" data-name="Group 1940" transform="translate(2.859 10.956)">
        <path id="Rectangle_1709" data-name="Rectangle 1709" d="M0,0H8.208a0,0,0,0,1,0,0V7.555a0,0,0,0,1,0,0H7.555A7.555,7.555,0,0,1,0,0V0A0,0,0,0,1,0,0Z" transform="translate(48.161 34.277) rotate(-180)" fill="#b2cfda"/>
        <path id="Rectangle_1710" data-name="Rectangle 1710" d="M7.555,0h.654a0,0,0,0,1,0,0V7.555a0,0,0,0,1,0,0H0a0,0,0,0,1,0,0v0A7.555,7.555,0,0,1,7.555,0Z" transform="translate(31.74 26.722)" fill="#ccdfe6"/>
        <path id="Path_3909" data-name="Path 3909" d="M10958.293-970.326l5.085-.8h2.426v5.387l-6.791-2.694Z" transform="translate(-10925.85 1002.259)" fill="#f9c1ad"/>
        <g id="Group_1931" data-name="Group 1931" transform="translate(27.395 68.448)">
          <path id="Path_3910" data-name="Path 3910" d="M10948.676-891.753l.008.006c-.023-.475-.057-.968-.1-1.478h11.7V-880.7c-.41-.009-.842-.031-1.279-.069l-1.924,57.192h-3.373C10944.559-877.079,10948.676-891.753,10948.676-891.753Z" transform="translate(-10947.753 893.225)" fill="#1083b1"/>
          <path id="Path_3911" data-name="Path 3911" d="M10985.638-891.732c.15.582,3.929,15.72-5.047,68.152h-3.371l-1.926-57.192c-.435.037-.866.06-1.277.068v-12.522h11.706C10985.686-892.713,10985.658-892.215,10985.638-891.732Z" transform="translate(-10961.438 893.225)" fill="#1083b1"/>
        </g>
        <path id="Path_3912" data-name="Path 3912" d="M10995.6-1011.785a2.576,2.576,0,0,0,1.885,3.085h0a2.578,2.578,0,0,0,2.723-2.381l.289-1.893a2.577,2.577,0,0,0-1.887-3.084h0a2.575,2.575,0,0,0-2.721,2.381Z" transform="translate(-10945.268 1025.682)" fill="#f7b39a"/>
        <path id="Path_3913" data-name="Path 3913" d="M10947.36-1012.16a2.575,2.575,0,0,1-1.888,3.085h0a2.575,2.575,0,0,1-2.72-2.382l-.29-1.891a2.577,2.577,0,0,1,1.888-3.085h0a2.574,2.574,0,0,1,2.718,2.381Z" transform="translate(-10917.581 1025.878)" fill="#fad0c1"/>
        <g id="Group_1932" data-name="Group 1932" transform="translate(48.551 32.941)">
          <path id="Path_3914" data-name="Path 3914" d="M10994.114-967.353s11.971.186,11.673,41.169h-3.948c-.427-4.81-5.083-31-9.918-32.534Z" transform="translate(-10991.921 967.353)" fill="#f7b39a"/>
          <path id="Path_3915" data-name="Path 3915" d="M11008.268-873.5c.1-2.109,1.646-8.272,2.408-9.164l3.611.241c0,2.356.954,4.211-.093,6.476a20.248,20.248,0,0,1-3.492,4.857C11008.743-868.9,11008.172-871.647,11008.268-873.5Z" transform="translate(-11000.435 923.227)" fill="#f7b39a"/>
        </g>
        <g id="Group_1933" data-name="Group 1933" transform="translate(48.117 32.941)">
          <path id="Path_3916" data-name="Path 3916" d="M11001.181-926.686c-1.395-5.938-5-30.6-10.166-31.807l2.625-8.86s4.841.062,8.846,11.511c2.833,8.09,3.216,18.307,3.216,29.056A22.233,22.233,0,0,1,11001.181-926.686Z" transform="translate(-10991.015 967.353)" fill="#b2b2b2"/>
        </g>
        <g id="Group_1934" data-name="Group 1934" transform="translate(35.869 22.418)">
          <path id="Path_3917" data-name="Path 3917" d="M10978.057-980.345v-8.978h-4.085v14.1l6.791-2.694.72-1.9Z" transform="translate(-10969.889 989.323)" fill="#f5a283"/>
          <rect id="Rectangle_1711" data-name="Rectangle 1711" width="4.084" height="9.72" fill="#f9c1ad"/>
        </g>
        <g id="Group_1935" data-name="Group 1935" transform="translate(26.897)">
          <path id="Path_3918" data-name="Path 3918" d="M10974.3-1034.388l10.528-.449,2.625,4.213s1.038,23.834-13.153,23.834Z" transform="translate(-10961.089 1035.455)" fill="#f7b198"/>
          <path id="Path_3919" data-name="Path 3919" d="M10959.932-1036.127h-9.24l-3.967,5.368s-.863,23.3,13.207,23.3Z" transform="translate(-10946.714 1036.127)" fill="#fad0c1"/>
        </g>
        <path id="Path_3920" data-name="Path 3920" d="M10974.732-879.333,10986-890.151s4.121,14.673-5.039,68.173h-3.373Z" transform="translate(-10934.414 960.071)" fill="#666"/>
        <path id="Path_3921" data-name="Path 3921" d="M10959.945-879.333l-11.27-10.818s-4.117,14.673,5.039,68.173h3.373Z" transform="translate(-10920.356 960.071)" fill="#999"/>
        <path id="Path_3922" data-name="Path 3922" d="M10980.482-747.822h3.376s9.506,3.374,8.541,5.3h-12.116Z" transform="translate(-10937.306 885.915)" fill="#404041"/>
        <path id="Path_3923" data-name="Path 3923" d="M10954.137-747.822h-3.373s-9.508,3.374-8.543,5.3h12.114Z" transform="translate(-10917.439 885.915)" fill="#58595b"/>
        <path id="Path_3924" data-name="Path 3924" d="M10974.1-1011.842v5.274a1.675,1.675,0,0,1-1.675,1.68,1.679,1.679,0,0,1-1.682-1.68l1.9-5.855Z" transform="translate(-10932.339 1023.777)" fill="#f7b198"/>
        <g id="Group_1936" data-name="Group 1936" transform="translate(28.23 68.448)">
          <path id="Path_3925" data-name="Path 3925" d="M10985.723-893.225a35.376,35.376,0,0,0-.049,5.339c.442,5.05-6.792,7.083-11.657,7.183v-12.522Z" transform="translate(-10962.272 893.225)" fill="#00213b"/>
          <path id="Path_3926" data-name="Path 3926" d="M10949.5-893.225h11.7V-880.7c-4.864-.1-12.225-2.145-11.655-7.183A30.647,30.647,0,0,0,10949.5-893.225Z" transform="translate(-10949.498 893.225)" fill="#153853"/>
        </g>
        <path id="Path_3927" data-name="Path 3927" d="M10983.462-1010.128a1.125,1.125,0,0,0,1.1,1.146,1.123,1.123,0,0,0,1.1-1.146,1.123,1.123,0,0,0-1.1-1.146A1.125,1.125,0,0,0,10983.462-1010.128Z" transform="translate(-10938.963 1023.178)" fill="#4c4c4c"/>
        <path id="Path_3928" data-name="Path 3928" d="M10961.517-1010.574a1.126,1.126,0,0,0,1.106,1.147,1.127,1.127,0,0,0,1.106-1.147,1.127,1.127,0,0,0-1.106-1.146A1.126,1.126,0,0,0,10961.517-1010.574Z" transform="translate(-10927.53 1023.411)" fill="#666"/>
        <g id="Group_1937" data-name="Group 1937" transform="translate(36.015 21.001)">
          <path id="Path_3929" data-name="Path 3929" d="M10969.895-991.583a12.765,12.765,0,0,0,4.439-.7,5.961,5.961,0,0,1-4.439,1.92,5.413,5.413,0,0,1-4.143-1.92A10.218,10.218,0,0,0,10969.895-991.583Z" transform="translate(-10965.752 992.281)" fill="#fff"/>
          <path id="Path_3930" data-name="Path 3930" d="M10974.4-991.583a12.759,12.759,0,0,0,4.439-.7,4.828,4.828,0,0,1-4.439,2.485Z" transform="translate(-10970.257 992.281)" fill="#ef6431"/>
          <path id="Path_3931" data-name="Path 3931" d="M10969.895-991.583a10.218,10.218,0,0,1-4.143-.7,5.514,5.514,0,0,0,4.143,2.485Z" transform="translate(-10965.752 992.281)" fill="#f5a283"/>
        </g>
        <path id="Path_3932" data-name="Path 3932" d="M10979.66-970.393c3.088.434,7.506,1.7,9.094,3.866,1.535,2.1-1.011,6.936-2.224,17.381-.7,5.993-.025,18.044,1.175,24.638.91,4.987-8.868,8.013-13.733,8.113v-49.714Z" transform="translate(-10934.021 1001.878)" fill="#b2b2b2"/>
        <g id="Group_1939" data-name="Group 1939" transform="translate(0 20.173)">
          <g id="Group_1938" data-name="Group 1938">
            <path id="Path_3933" data-name="Path 3933" d="M10890.559-993.159c0,21.016,18.177,28.684,31.791,20.777l-2.627-8.86s-8.147,2.283-13.543,1.432c-7.951-1.255-9.087-12.212-9.37-14.2C10896.239-994.011,10890.559-993.159,10890.559-993.159Z" transform="translate(-10890.559 994.011)" fill="#ccc"/>
          </g>
          <path id="Path_3934" data-name="Path 3934" d="M10951.678-970.393c-3.084.434-7.5,1.7-9.088,3.866-1.539,2.1,1.008,6.936,2.221,17.381.7,5.993.025,18.044-1.178,24.638-.908,4.987,8.873,8.013,13.738,8.113v-49.714Z" transform="translate(-10917.418 981.706)" fill="#ccc"/>
        </g>
      </g>
      <g id="Group_1941" data-name="Group 1941" transform="translate(46.566 46.55)">
        <rect id="Rectangle_1712" data-name="Rectangle 1712" width="0.455" height="9.6" transform="translate(0.594)" fill="#fff"/>
        <circle id="Ellipse_984" data-name="Ellipse 984" cx="0.82" cy="0.82" r="0.82" transform="translate(0 8.629)" fill="#fff"/>
      </g>
      <g id="Group_1942" data-name="Group 1942" transform="translate(38.237 46.55)">
        <rect id="Rectangle_1713" data-name="Rectangle 1713" width="0.455" height="7.451" transform="translate(0.594)" fill="#ccc"/>
        <circle id="Ellipse_985" data-name="Ellipse 985" cx="0.82" cy="0.82" r="0.82" transform="translate(0 6.532)" fill="#ccc"/>
      </g>
      <path id="Path_3935" data-name="Path 3935" d="M10974.308-1051.612c5.435.6,10.931,1.188,13.74,5.41,0,0,.892-.37.887-.218-.047,5.354-.536,17.357-2.346,17.346,1.088-5.874-1.009-11.146-3.9-11.792-1.653-.463-4.956,2.382-8.283,2.336-.031,0-.063,0-.1-.005Z" transform="translate(-10931.334 1055.151)" fill="#4c4c4c"/>
      <path id="Path_3936" data-name="Path 3936" d="M10944.027-1052.932c-.158-.113.682-.246,1.228.246,0,0,.32-.3-.272-1.085-.52-.686-.295-2.573-.131-2.439a4.526,4.526,0,0,0,2.353.992c-.5-.577-1.1-3.534-.388-3.782,2.848,2.535,7.254,3.044,11.7,3.539v13.078c-3.3-.091-6.753-2.548-8.55-1.909-2.894.646-4.866,5.5-3.779,11.37C10943.72-1034.549,10945.623-1051.832,10944.027-1052.932Z" transform="translate(-10915.548 1059)" fill="#666"/>
    </g>
    <g id="Group_1950" data-name="Group 1950" transform="translate(10619.443 -1092.878)">
      <g id="Group_1945" data-name="Group 1945" transform="translate(56.055 51.457)">
        <circle id="Ellipse_986" data-name="Ellipse 986" cx="6.828" cy="6.828" r="6.828" fill="#fad0c1"/>
        <g id="Group_1944" data-name="Group 1944" transform="translate(1.6 0.281)">
          <path id="Path_3937" data-name="Path 3937" d="M10811.057-916.712l-3.875,13.094a6.826,6.826,0,0,0,8.484-4.61A6.824,6.824,0,0,0,10811.057-916.712Z" transform="translate(-10803.891 916.712)" fill="#f5a283"/>
          <circle id="Ellipse_987" data-name="Ellipse 987" cx="5.227" cy="5.227" r="5.227" transform="translate(0 1.32)" fill="#f5a283"/>
        </g>
        <path id="Path_3938" data-name="Path 3938" d="M10811.125-913.418l-2.968,10.025a5.228,5.228,0,0,0,6.5-3.529A5.227,5.227,0,0,0,10811.125-913.418Z" transform="translate(-10802.811 915.233)" fill="#f2835a"/>
      </g>
      <g id="Group_1946" data-name="Group 1946" transform="translate(22.289 29.511)">
        <path id="Path_3939" data-name="Path 3939" d="M10741.292-959.846c-.233.931-4.019.9-8.42-.2s-7.751-2.87-7.516-3.8,3.962-.676,8.361.429,7.809,2.642,7.574,3.573" transform="translate(-10724.814 964.419)" fill="#fad0c1"/>
        <path id="Path_3940" data-name="Path 3940" d="M10741.555-959.926c-.174.683-3.38.556-7.135-.388s-6.649-2.347-6.479-3.03,3.342-.389,7.1.555,6.689,2.18,6.518,2.864" transform="translate(-10726.197 964.045)" fill="#f5a283"/>
        <path id="Path_3941" data-name="Path 3941" d="M10732.263-959.44c-4.4-1.1-7.74-2.909-7.507-3.841l-.535,2.145c-.233.931,3.105,2.737,7.507,3.841s8.192,1.091,8.43.161l.538-2.144c-.234.931-4.027.943-8.433-.162" transform="translate(-10724.209 963.811)" fill="#f5a283"/>
        <path id="Path_3942" data-name="Path 3942" d="M10740.932-955.026l-.54,2.145c4.393,1.1,8.179,1.085,8.411.156l.539-2.144C10749.107-953.94,10745.322-953.926,10740.932-955.026Z" transform="translate(-10732.854 959.402)" fill="#f2835a"/>
        <path id="Path_3943" data-name="Path 3943" d="M10742.4-962.263l-.848,3.372c4.391,1.1,8.166,1.126,8.4.2S10746.784-961.158,10742.4-962.263Z" transform="translate(-10733.47 963.268)" fill="#f5a283"/>
        <path id="Path_3944" data-name="Path 3944" d="M10742.514-961.713l-.621,2.475c3.75.939,6.945,1.065,7.115.383S10746.263-960.77,10742.514-961.713Z" transform="translate(-10733.654 962.974)" fill="#f2835a"/>
      </g>
      <g id="Group_1947" data-name="Group 1947" transform="translate(0.696 49.33)">
        <path id="Path_3945" data-name="Path 3945" d="M10691.113-921.5c.266.773-2.453,2.505-6.107,3.752s-6.863,1.536-7.127.763,2.516-2.317,6.172-3.563,6.8-1.725,7.063-.952" transform="translate(-10677.861 921.879)" fill="#fad0c1"/>
        <path id="Path_3946" data-name="Path 3946" d="M10691.164-920.935c.19.567-2.158,1.96-5.279,3.025s-5.831,1.4-6.025.831,2.2-1.822,5.321-2.887,5.788-1.537,5.983-.969" transform="translate(-10678.922 921.504)" fill="#f5a283"/>
        <path id="Path_3947" data-name="Path 3947" d="M10685.014-917.362c-3.658,1.247-6.875,1.5-7.141.73l.607,1.781c.266.772,3.482.517,7.139-.729s6.359-3.012,6.1-3.786l-.605-1.781c.264.774-2.441,2.538-6.1,3.785" transform="translate(-10677.869 921.488)" fill="#f5a283"/>
        <path id="Path_3948" data-name="Path 3948" d="M10693.234-917.368l.61,1.782c3.645-1.246,6.339-3.008,6.077-3.78l-.606-1.781C10699.579-920.375,10696.881-918.615,10693.234-917.368Z" transform="translate(-10686.071 921.488)" fill="#f2835a"/>
        <path id="Path_3949" data-name="Path 3949" d="M10691.184-920.559l.956,2.8c3.645-1.246,6.354-2.973,6.092-3.745S10694.832-921.8,10691.184-920.559Z" transform="translate(-10684.975 921.879)" fill="#f5a283"/>
        <path id="Path_3950" data-name="Path 3950" d="M10691.341-919.972l.7,2.055c3.113-1.064,5.452-2.452,5.261-3.019S10694.453-921.033,10691.341-919.972Z" transform="translate(-10685.061 921.504)" fill="#f2835a"/>
      </g>
      <g id="Group_1948" data-name="Group 1948" transform="translate(44.225 1.28)">
        <path id="Path_3951" data-name="Path 3951" d="M10781.211-1013.6c-4.7,1.368-9.082.494-9.74-1.773l.8,2.762c.66,2.266,5,2.995,9.7,1.626s7.965-4.316,7.3-6.582l-.8-2.762c.66,2.267-2.568,5.36-7.262,6.729" transform="translate(-10771.389 1022.511)" fill="#f5a283"/>
        <path id="Path_3952" data-name="Path 3952" d="M10788.377-1022.828c.662,2.266-2.565,5.36-7.263,6.729s-9.078.494-9.738-1.773,2.662-5.033,7.356-6.4,8.983-.821,9.645,1.446" transform="translate(-10771.292 1025.016)" fill="#fad0c1"/>
        <path id="Path_3953" data-name="Path 3953" d="M10782.26-1016.3c-4.471,1.3-7.708.321-8.065-.9s1.842-3.8,6.315-5.106,7.714-.31,8.068.913-1.843,3.791-6.318,5.095" transform="translate(-10772.82 1023.898)" fill="#f5a283"/>
        <path id="Path_3954" data-name="Path 3954" d="M10792.442-1013.606l.763,2.616c4.677-1.372,7.933-4.311,7.272-6.573l-.8-2.762C10800.334-1018.064,10797.121-1014.979,10792.442-1013.606Z" transform="translate(-10782.589 1022.511)" fill="#f2835a"/>
        <path id="Path_3955" data-name="Path 3955" d="M10787.33-1024.282l2.383,8.173c4.68-1.373,7.891-4.458,7.232-6.72S10792.013-1025.64,10787.33-1024.282Z" transform="translate(-10779.858 1025.016)" fill="#f5a283"/>
        <path id="Path_3956" data-name="Path 3956" d="M10787.86-1022.317l1.752,6.007c4.452-1.307,6.643-3.866,6.289-5.086S10792.316-1023.608,10787.86-1022.317Z" transform="translate(-10780.142 1023.898)" fill="#f2835a"/>
      </g>
      <g id="Group_1949" data-name="Group 1949" transform="translate(0)">
        <path id="Path_3957" data-name="Path 3957" d="M10680.749-1020.8c-2.59-1.717-3.965-4.2-3.137-5.455l-1.01,1.524c-.83,1.251.6,3.657,3.189,5.374s5.364,2.1,6.2.844l1.011-1.525c-.83,1.251-3.655.954-6.249-.763" transform="translate(-10676.366 1026.958)" fill="#f5a283"/>
        <path id="Path_3958" data-name="Path 3958" d="M10688.147-1020.841c-.83,1.251-3.655.954-6.248-.763s-3.966-4.2-3.135-5.455,3.536-.774,6.128.943,4.084,4.024,3.255,5.275" transform="translate(-10677.519 1027.764)" fill="#fad0c1"/>
        <path id="Path_3959" data-name="Path 3959" d="M10683.384-1021.5c-2.468-1.637-3.32-3.611-2.873-4.287s2.6-.666,5.071.97,3.316,3.617,2.869,4.292-2.6.66-5.067-.976" transform="translate(-10678.518 1026.934)" fill="#f5a283"/>
        <path id="Path_3960" data-name="Path 3960" d="M10684.711-1014.522l-.954,1.444c2.588,1.708,5.348,2.081,6.178.833l1.011-1.524C10690.116-1012.522,10687.3-1012.815,10684.711-1014.522Z" transform="translate(-10680.313 1020.691)" fill="#f2835a"/>
        <path id="Path_3961" data-name="Path 3961" d="M10688.8-1024.2l-2.986,4.512c2.584,1.707,5.4,2,6.229.752S10691.379-1022.487,10688.8-1024.2Z" transform="translate(-10681.413 1025.862)" fill="#f5a283"/>
        <path id="Path_3962" data-name="Path 3962" d="M10689.045-1023.2l-2.2,3.316c2.463,1.625,4.6,1.638,5.049.965S10691.5-1021.565,10689.045-1023.2Z" transform="translate(-10681.964 1025.326)" fill="#f2835a"/>
      </g>
    </g>
  </g>
</svg>
